<?xml version="1.0" standalone="no"?>
<!DOCTYPE svg PUBLIC "-//W3C//DTD SVG 20010904//EN" "http://www.w3.org/TR/2001/REC-SVG-20010904/DTD/svg10.dtd">
<svg version="1.0" xmlns="http://www.w3.org/2000/svg" width="700.000000pt" height="700.000000pt"
  viewBox="0 0 700.000000 700.000000" preserveAspectRatio="xMidYMid meet">
  <metadata>
    Created by potrace 1.14, written by Peter Selinger 2001-2017
  </metadata>
  <g transform="translate(0.000000,700.000000) scale(0.100000,-0.100000)" fill="currentColor" stroke="none">
    <path d="M2232 5609 c-195 -25 -407 -126 -564 -268 -120 -108 -230 -283 -281
-446 -39 -124 -50 -219 -44 -362 11 -271 105 -481 303 -680 92 -93 123 -113
172 -113 59 0 122 65 122 125 0 39 -15 61 -101 152 -218 232 -294 511 -213
784 64 217 242 412 455 499 150 62 88 60 1571 60 1062 0 1358 -3 1378 -13 13
-7 35 -28 47 -46 l23 -34 0 -1121 0 -1122 58 -12 c31 -7 86 -25 120 -42 35
-16 68 -30 73 -30 13 0 12 2255 -1 2343 -20 134 -99 243 -220 301 l-65 31
-1385 1 c-762 1 -1413 -2 -1448 -7z" />
    <path d="M1960 4700 l0 -130 75 0 75 0 0 -1284 c0 -1379 -1 -1342 50 -1480 30
-78 111 -197 171 -249 62 -53 157 -111 224 -136 131 -49 126 -49 1335 -53
l1135 -3 79 23 c139 40 229 94 337 202 82 82 102 108 141 190 60 122 80 207
80 334 0 224 -80 409 -244 561 -87 81 -200 145 -314 178 l-79 22 -1085 3
c-776 2 -1100 0 -1137 -8 -70 -15 -134 -66 -167 -132 -26 -51 -26 -56 -26
-257 0 -232 6 -256 75 -326 60 -60 104 -75 223 -75 l102 0 0 125 0 125 -75 0
-75 0 0 146 0 147 95 -5 c84 -5 104 -10 169 -42 132 -65 228 -195 262 -356 34
-162 -23 -330 -154 -457 -148 -144 -389 -180 -580 -87 -103 50 -206 166 -255
286 l-22 53 -5 1330 -5 1330 -22 40 c-50 93 -100 115 -263 115 l-120 0 0 -130z
m3030 -2091 c183 -29 343 -172 395 -352 22 -76 22 -198 0 -273 -51 -178 -208
-320 -389 -353 -64 -12 -581 -13 -1174 -2 l-343 6 30 40 c161 219 187 528 66
782 -19 40 -48 93 -65 118 l-31 45 723 0 c456 0 747 -4 788 -11z" />
    <path d="M2810 4655 l0 -125 801 0 801 0 34 34 c31 31 34 39 34 94 0 54 -3 64
-31 91 l-31 31 -804 0 -804 0 0 -125z" />
    <path d="M2810 4050 l0 -130 934 2 c930 3 935 3 963 24 60 45 64 151 7 205
l-26 24 -939 3 -939 2 0 -130z" />
    <path d="M2810 3450 l0 -130 785 0 c845 0 832 -1 869 51 10 15 16 44 16 79 0
35 -6 64 -16 79 -37 52 -24 51 -869 51 l-785 0 0 -130z" />
  </g>
</svg>