<?xml version="1.0" standalone="no"?>
<!DOCTYPE svg PUBLIC "-//W3C//DTD SVG 20010904//EN"
 "http://www.w3.org/TR/2001/REC-SVG-20010904/DTD/svg10.dtd">
<svg version="1.0" xmlns="http://www.w3.org/2000/svg"
 width="300.000000pt" height="300.000000pt" viewBox="0 0 300.000000 300.000000"
 preserveAspectRatio="xMidYMid meet">
<metadata>
Created by potrace 1.14, written by Peter Selinger 2001-2017
</metadata>
<g transform="translate(0.000000,300.000000) scale(0.100000,-0.100000)"
fill="#000000" stroke="none">
<path d="M643 2499 c-38 -7 -86 -41 -111 -77 -60 -83 -51 -188 22 -264 52 -54
87 -65 227 -67 57 -1 105 -4 107 -6 2 -2 3 -314 3 -693 -1 -778 -2 -758 70
-831 72 -71 63 -70 764 -70 668 0 644 -1 717 52 63 47 89 166 54 249 -26 61
-114 118 -182 118 -19 0 -19 20 -19 713 l0 712 -28 47 c-29 50 -72 89 -122
109 -23 9 -207 12 -751 13 -397 1 -735 -1 -751 -5z"/>
</g>
</svg>
