<svg version="1.1" id="Layer_1" xmlns="http://www.w3.org/2000/svg" xmlns:xlink="http://www.w3.org/1999/xlink" x="0px" y="0px"
	 width="100%" viewBox="0 0 741 208" enable-background="new 0 0 741 208" xml:space="preserve">
<path fill="#000000" opacity="1.000000" stroke="none" 
	d="
M742.000000,177.000000 
	C742.000000,187.658600 742.000000,198.317215 742.000000,209.000000 
	C559.979126,209.000000 377.958221,209.000000 195.157928,208.829529 
	C194.325638,208.428772 194.272751,208.198486 193.994354,207.446198 
	C193.860382,206.556335 193.951874,206.188477 194.191406,206.316910 
	C194.894119,207.005753 195.448807,207.198303 196.306213,207.185654 
	C201.666687,204.743729 205.371384,201.221786 206.934113,195.474060 
	C206.511734,194.839523 206.311691,194.607361 206.134033,194.108032 
	C206.221222,193.674240 206.286041,193.507645 206.747330,193.491409 
	C209.862579,190.510605 209.715698,178.858017 206.815506,176.492004 
	C206.379288,176.136154 205.322845,176.540619 204.457153,176.522125 
	C204.361008,176.450867 204.350372,176.211761 204.685791,175.999924 
	C205.190903,175.356949 205.360596,174.925812 205.530289,174.494675 
	C204.812775,174.549622 204.095261,174.604568 203.133667,174.393143 
	C202.470093,173.544373 202.050598,172.961990 201.840759,172.328308 
	C202.050415,172.276993 201.748703,171.985168 201.748703,171.985168 
	C201.748703,171.985168 201.637543,172.398010 201.289581,172.210205 
	C199.453812,170.839096 197.966003,169.655792 196.578094,168.280579 
	C196.615082,168.212830 196.552139,168.336990 196.511078,168.672028 
	C196.532959,168.882935 196.121658,168.986145 195.985779,168.780212 
	C195.516220,168.384155 195.210922,168.422318 194.731201,168.673019 
	C194.242859,168.595627 194.033569,168.434799 193.950073,167.886017 
	C193.772598,167.285675 193.545593,166.974106 193.318604,166.662537 
	C193.196350,167.074692 193.074112,167.486847 192.542633,167.884491 
	C190.782883,167.744522 189.432388,167.619034 188.163605,167.168518 
	C188.114838,166.187759 187.984344,165.532059 187.710846,164.492523 
	C187.378418,162.323700 187.030960,160.539337 187.023743,158.753601 
	C186.943222,138.825699 186.915237,118.897591 186.934509,98.506378 
	C186.958038,88.371597 186.920151,78.699982 186.933258,68.560410 
	C187.089874,54.050880 187.195526,40.009308 187.462433,25.887608 
	C187.504791,25.547705 187.385880,25.287928 187.153076,24.680344 
	C186.984711,23.604031 186.930283,22.875525 186.877991,21.776890 
	C186.855637,20.914040 186.831116,20.421318 186.718994,19.601398 
	C183.555420,12.275632 179.964249,5.743666 171.769913,2.956643 
	C171.342331,2.176482 171.171158,1.588241 171.000000,1.000000 
	C361.333344,1.000000 551.666687,1.000000 742.000000,1.000000 
	C742.000000,11.411006 742.000000,21.736845 741.687012,32.515388 
	C740.860657,33.279331 740.347351,33.590569 739.563110,34.097935 
	C736.334595,36.072632 733.248413,37.671658 730.451538,39.674625 
	C726.851440,42.252831 723.483337,45.154869 719.576782,47.969032 
	C718.756348,49.455921 718.042969,50.890690 718.040771,52.326550 
	C717.980530,91.743141 717.970154,131.159897 718.079163,170.576248 
	C718.083374,172.079300 719.355225,173.578842 720.052979,175.036896 
	C720.069519,174.993759 719.985413,174.955414 720.012329,175.397217 
	C721.277954,176.231812 722.510864,176.940750 723.756470,176.963821 
	C729.835754,177.076355 735.918518,177.005798 742.000000,177.000000 
M662.995544,46.992538 
	C662.995544,46.992538 662.943970,46.921753 662.387207,46.979088 
	C662.233521,47.295319 662.079773,47.611553 661.996704,47.955093 
	C661.996704,47.955093 661.964355,47.886631 661.202026,48.332241 
	C661.137085,48.824871 661.015442,49.317486 661.015320,49.810135 
	C661.004333,90.399185 660.994629,130.988266 661.040771,171.577255 
	C661.042114,172.757507 661.640991,173.937073 661.967529,175.036041 
	C661.967529,175.036041 661.886414,175.032776 662.207825,175.799774 
	C662.722473,176.189453 663.232300,176.910812 663.752563,176.918427 
	C670.233643,177.013519 676.725891,177.184998 683.188049,176.835144 
	C684.194824,176.780640 685.877808,174.229340 685.882141,172.828445 
	C686.002319,133.600098 685.946350,94.371208 685.945923,54.187859 
	C685.945923,47.354084 685.945923,40.520309 685.945923,33.686535 
	C685.367065,33.440071 684.788208,33.193607 684.209351,32.947144 
	C677.490723,37.288994 670.772034,41.630844 663.485962,46.011101 
	C663.299133,46.320759 663.112305,46.630421 662.995544,46.992538 
M348.055756,49.945965 
	C348.055756,49.945965 348.039185,49.924194 348.141541,49.229996 
	C347.454376,48.810822 346.767242,48.391647 346.073212,47.929310 
	C346.073212,47.929310 346.030548,47.919834 346.211609,47.216690 
	C345.502319,46.801701 344.793030,46.386707 344.065643,45.900856 
	C344.065643,45.900856 343.993256,45.911514 343.891235,45.241127 
	C342.912079,44.791710 341.932922,44.342297 340.476868,43.796352 
	C340.146210,43.746685 339.827820,43.789101 339.250732,43.194443 
	C337.189789,42.445961 335.128876,41.697479 333.043060,40.920589 
	C333.043060,40.920589 333.005768,40.926666 332.669159,40.278637 
	C329.788269,39.551197 326.907379,38.823757 323.187073,38.047146 
	C321.785706,38.029575 320.384369,38.012005 318.945190,37.111820 
	C318.692017,36.765739 318.442871,36.120766 318.185059,36.117264 
	C311.633759,36.028229 305.080261,35.935589 298.531219,36.060184 
	C297.688629,36.076214 296.868622,37.280430 295.494293,38.306217 
	C294.663269,38.537148 293.832245,38.768078 292.385620,38.638905 
	C288.169006,40.050522 283.952423,41.462139 279.438080,43.141109 
	C279.245911,43.328030 279.077362,43.534264 278.358673,44.016823 
	C277.558868,44.656319 276.759064,45.295815 275.967621,45.949871 
	C275.967621,45.949871 275.967743,45.964050 275.471741,46.208443 
	C275.278656,46.519939 275.085571,46.831436 274.577484,47.324322 
	C274.377777,47.467018 274.209900,47.640511 273.451508,47.974380 
	C272.932556,48.300285 272.413635,48.626186 271.494110,49.193932 
	C271.242859,49.382053 271.019714,49.599072 270.268005,50.216290 
	C269.498657,51.786900 268.729309,53.357506 267.953613,54.957539 
	C267.953613,54.957539 267.923553,54.955807 267.200806,54.880226 
	C265.800415,57.587070 264.400024,60.293915 262.938599,63.335125 
	C262.938599,63.335125 262.895569,63.672276 262.183685,63.838238 
	C259.037659,65.386734 260.218536,67.705925 260.958740,70.650696 
	C260.615723,71.749451 260.272705,72.848198 259.548492,74.651321 
	C259.675720,77.452705 259.802979,80.254097 259.989655,83.751205 
	C260.352844,84.842010 260.716003,85.932816 260.880829,87.722771 
	C260.672791,88.792885 259.939026,90.145264 260.338470,90.889214 
	C264.120911,97.933945 268.375122,104.624962 275.853119,108.651390 
	C275.853119,108.651390 275.858612,108.934235 276.049896,109.656235 
	C280.045746,111.470406 284.041595,113.284576 288.586884,115.065071 
	C288.953430,115.077927 289.320007,115.090790 289.848053,115.907951 
	C295.896118,117.593628 301.944214,119.279305 308.469818,121.015709 
	C308.469818,121.015709 308.946838,121.071121 309.592377,121.425102 
	C311.715515,121.902626 313.838623,122.380142 316.635620,122.933350 
	C317.086853,122.960144 317.538086,122.986938 318.578857,123.382637 
	C320.044128,123.881989 321.509369,124.381348 323.597290,124.953758 
	C324.013397,124.993225 324.429474,125.032692 325.305695,125.588097 
	C326.197998,125.753036 327.090271,125.917969 328.329102,126.492317 
	C328.825836,126.677422 329.322571,126.862526 329.946075,127.740555 
	C331.938202,129.507812 333.930359,131.275055 335.949738,133.047745 
	C335.949738,133.047745 335.960602,133.073334 335.835510,133.833374 
	C336.526733,136.245605 337.217926,138.657852 337.961456,141.787949 
	C338.295013,144.146469 338.628571,146.504990 338.354980,149.207336 
	C335.194733,152.143677 332.034485,155.080032 328.603821,158.256317 
	C328.423828,158.418640 328.265076,158.599579 327.324982,158.776443 
	C326.373352,159.480621 325.421692,160.184784 324.258423,160.835800 
	C324.258423,160.835800 324.048737,160.896255 323.172241,160.890488 
	C316.806702,160.917206 310.441193,160.943924 304.062469,160.909088 
	C304.062469,160.909088 303.999939,160.916077 303.905853,160.204315 
	C302.626251,159.784241 301.346649,159.364182 300.040070,158.942276 
	C300.040070,158.942276 300.021851,158.922302 299.850800,158.293915 
	C298.924744,157.850266 297.998657,157.406616 297.050385,156.947464 
	C297.050385,156.947464 297.043488,156.921234 297.147949,156.199631 
	C294.811249,154.312637 292.474579,152.425659 290.150055,150.295486 
	C290.150055,150.295486 290.103638,150.056442 289.813477,149.446564 
	C289.229248,149.125992 288.645020,148.805420 288.171539,148.298233 
	C288.171539,148.298233 288.163757,148.081375 288.099518,147.351196 
	C287.433502,146.733231 286.767456,146.115265 286.148560,145.267471 
	C286.148560,145.267471 286.097198,145.038574 286.138641,144.233765 
	C286.266876,141.218094 284.459839,140.624115 281.309753,140.950912 
	C280.874115,140.966141 280.438446,140.981369 279.182159,140.914749 
	C276.796906,141.582962 274.411652,142.251160 271.952240,142.895279 
	C271.952240,142.895279 271.921295,142.966827 271.165466,142.738937 
	C269.102295,143.470718 267.039124,144.202499 264.984589,144.990768 
	C264.984589,144.990768 264.957214,144.939285 264.474182,144.926743 
	C264.474182,144.926743 263.995636,144.993958 263.262085,145.025482 
	C261.841370,145.351166 260.420685,145.676834 258.245483,146.084167 
	C256.671234,147.982101 255.442337,149.833221 258.976593,151.010635 
	C258.976593,151.010635 258.935089,151.064972 258.768219,151.731354 
	C258.699768,152.658585 258.200989,153.956955 258.630402,154.454819 
	C262.338959,158.754700 266.214661,162.910400 270.400055,167.104614 
	C270.400055,167.104614 270.759491,167.112534 271.188599,167.687759 
	C275.008209,169.501633 278.769775,171.458466 282.681183,173.046280 
	C283.928986,173.552811 285.574371,173.080017 287.364655,173.078522 
	C287.364655,173.078522 287.691254,173.104340 288.056305,173.778702 
	C290.697266,174.487534 293.338257,175.196365 296.675323,175.875504 
	C298.812775,175.900284 300.950226,175.925079 303.820618,176.365799 
	C308.558136,176.572311 313.295013,176.856979 318.033844,176.893646 
	C318.679077,176.898651 319.333923,175.664154 320.674011,174.986664 
	C321.133453,174.966446 321.592896,174.946228 322.779968,175.097916 
	C325.296753,174.827057 327.813568,174.556183 330.673248,174.072723 
	C330.673248,174.072723 331.030273,173.884766 331.748260,173.997192 
	C333.263214,173.423203 334.778168,172.849213 336.632324,172.151093 
	C336.632324,172.151093 336.982361,172.062088 337.715668,172.104050 
	C340.476135,170.432693 343.236603,168.761337 346.061920,167.101929 
	C346.061920,167.101929 346.080994,167.038818 346.794220,167.080811 
	C349.589813,163.736343 352.385376,160.391891 355.549927,156.793686 
	C355.781067,156.601578 355.982635,156.382294 356.717743,155.751312 
	C357.766205,153.510468 358.814667,151.269608 360.054413,148.640900 
	C360.054413,148.640900 360.265961,148.263687 360.804199,147.702133 
	C361.590607,143.180588 363.158356,138.618011 362.923828,134.150055 
	C362.725128,130.365158 360.442200,126.689651 359.058350,122.951515 
	C359.058350,122.951515 359.045929,122.927231 359.184937,122.222977 
	C358.152710,120.819672 357.120453,119.416367 356.098450,117.933342 
	C356.098450,117.933342 356.020050,117.915642 356.118958,117.236443 
	C355.075500,116.146317 354.032043,115.056190 352.665405,113.916840 
	C352.665405,113.916840 352.338837,113.902260 352.115326,113.271065 
	C351.430054,112.824081 350.744812,112.377106 350.070740,111.972458 
	C350.070740,111.972458 350.078766,111.922371 350.024658,111.217148 
	C347.008759,109.456245 343.992859,107.695335 340.486328,105.825760 
	C340.154694,105.854515 339.823029,105.883278 339.178925,105.223167 
	C334.790375,103.501572 330.401825,101.779968 325.541962,99.984009 
	C325.541962,99.984009 325.071259,99.905869 324.355865,99.541420 
	C322.236115,99.358330 320.116333,99.175232 317.441345,98.758461 
	C316.715546,98.417267 315.989746,98.076073 314.713379,97.220558 
	C313.481964,97.167595 312.250549,97.114639 310.507568,96.997627 
	C310.166016,96.962402 309.824432,96.927170 309.026947,96.250824 
	C307.373535,95.817978 305.720093,95.385132 304.045105,94.932785 
	C304.045105,94.932785 304.018982,94.919952 303.848083,94.245529 
	C299.898621,91.827255 295.949127,89.408981 291.561646,86.982063 
	C291.561646,86.982063 291.123657,86.973282 291.010345,86.312195 
	C290.355621,85.187233 289.700897,84.062271 289.010376,83.001526 
	C289.010376,83.001526 289.066803,82.954117 288.756561,82.321922 
	C287.865326,81.204788 286.974060,80.087654 286.070190,78.939041 
	C286.070190,78.939041 286.039856,78.923775 286.238190,78.257133 
	C285.910553,77.422150 285.582947,76.587173 285.093933,75.161942 
	C285.014313,74.761826 284.934723,74.361710 285.006409,73.070160 
	C284.992310,70.049484 284.978180,67.028816 285.018097,63.531727 
	C285.018097,63.531727 285.076965,63.055882 285.416107,62.474457 
	C289.010193,59.055225 292.604279,55.635998 296.894775,52.098106 
	C297.599579,52.051331 298.304382,52.004555 299.849518,52.049286 
	C304.561981,52.012844 309.274414,51.976398 314.459747,52.014389 
	C314.459747,52.014389 314.931824,52.093716 315.559601,52.418064 
	C316.685364,52.632496 317.811157,52.846928 318.966614,53.046993 
	C318.966614,53.046993 318.929138,53.074722 318.867035,53.799408 
	C322.541229,58.368656 326.215454,62.937908 329.854065,67.741058 
	C329.854065,67.741058 329.922455,67.967567 329.907776,68.767624 
	C330.610931,69.866150 331.314117,70.964676 332.724579,72.006805 
	C334.098877,71.754982 335.473206,71.503166 337.403198,71.734985 
	C339.691864,71.242767 341.980530,70.750542 345.010315,70.116623 
	C346.014191,70.047058 347.018036,69.977493 348.650146,69.787956 
	C351.685577,69.472168 354.721008,69.156372 357.818909,68.834084 
	C358.275177,61.800625 356.539581,56.135902 350.538055,52.002529 
	C350.538055,52.002529 350.070007,51.985374 349.956360,51.326397 
	C349.329620,50.872322 348.702881,50.418251 348.055756,49.945965 
M480.202393,175.795410 
	C480.570526,176.125732 480.933868,176.738220 481.307465,176.744522 
	C488.215332,176.861191 495.124603,176.930862 502.032684,176.883392 
	C502.349152,176.881210 502.657440,175.687622 503.064514,174.577652 
	C503.064514,174.577652 502.982758,174.103928 503.778931,173.703995 
	C503.819489,156.531006 503.860046,139.358032 503.940125,121.360168 
	C505.474670,114.171211 507.635712,107.348694 515.201477,102.574776 
	C516.926331,106.507263 518.503784,110.103851 520.089172,113.718323 
	C526.030029,110.196556 531.728027,106.879578 537.346558,103.432976 
	C538.381348,102.798195 539.556641,101.775047 539.875854,100.696884 
	C541.340454,95.749687 538.821411,90.140541 534.257690,87.575638 
	C525.532837,82.672089 514.432617,84.989777 508.459900,93.128738 
	C506.383575,95.958115 504.693268,99.070770 502.405731,102.726837 
	C500.738495,95.718781 499.242493,89.430450 497.461945,81.946091 
	C491.498749,85.950401 486.222290,89.493538 480.065460,93.005623 
	C479.692291,93.945786 478.995392,94.885193 478.993225,95.826210 
	C478.934387,121.209068 478.936310,146.592102 478.985474,171.975006 
	C478.987457,172.997604 479.549835,174.019119 480.202393,175.795410 
M375.272217,121.219826 
	C374.633514,122.850578 373.671753,124.431656 373.412018,126.120697 
	C372.276794,133.502853 372.821594,140.659958 376.907349,147.908890 
	C380.753784,161.407318 396.041962,175.248108 409.590668,175.822113 
	C418.012848,176.178925 426.667358,177.245438 435.109650,174.042557 
	C441.839233,171.489456 448.104492,168.229080 451.811951,162.243835 
	C453.458832,159.585114 452.089935,155.058289 452.089935,150.283386 
	C447.318817,152.277557 443.471802,153.888504 439.622437,155.493896 
	C419.903473,163.717804 401.811920,152.774109 397.957825,131.816544 
	C397.549286,126.324074 397.140778,120.831604 397.189758,114.661278 
	C397.426514,114.225090 397.794952,113.813225 397.880646,113.349159 
	C399.832703,102.776939 408.745605,93.308922 419.236908,92.185204 
	C428.580841,91.184380 435.719269,95.094322 438.106842,106.274033 
	C438.410034,107.693718 440.279602,109.820122 441.420898,109.818466 
	C444.478851,109.814049 447.563293,108.946007 450.585724,108.209755 
	C454.697906,107.208038 454.991028,104.505264 453.648651,101.011269 
	C449.293762,89.676109 440.086945,84.412529 428.958496,83.277283 
	C419.540466,82.316505 410.242340,83.065002 400.849060,87.138657 
	C386.947327,93.167511 379.973511,103.727180 375.758972,117.162552 
	C375.404755,118.291756 375.901947,119.688026 375.272217,121.219826 
M584.398560,176.746674 
	C589.267334,176.497971 594.136108,176.249283 599.778870,175.984970 
	C605.952026,176.040863 611.363464,173.781418 616.965942,171.324875 
	C628.408875,166.307480 634.116821,156.871155 636.715820,145.750656 
	C638.477478,138.212875 638.396545,130.042862 637.918274,122.230400 
	C637.199829,110.496452 631.960754,100.588203 622.404724,93.506783 
	C608.924622,83.517380 593.651672,82.164330 577.807739,85.664574 
	C566.495789,88.163620 557.312256,93.753952 551.425110,104.474411 
	C544.216675,117.600868 543.455017,131.325073 546.450500,145.415024 
	C548.326050,154.237183 552.282776,162.382767 560.020508,167.677887 
	C567.127441,172.541336 574.933777,176.005814 584.398560,176.746674 
z"/>
<path fill="#000000" opacity="1.000000" stroke="none" 
	d="
M58.000000,209.000000 
	C39.035278,209.000000 20.070555,209.000000 1.000000,209.000000 
	C1.000000,149.645813 1.000000,90.291565 1.354390,30.474922 
	C4.048489,32.707970 6.388197,35.403408 8.793344,38.131580 
	C8.858783,38.164314 8.930797,38.036922 8.840683,38.345898 
	C9.145880,39.119183 9.541189,39.583492 9.960922,40.029293 
	C9.985345,40.010780 9.953074,40.062645 10.092878,40.342457 
	C10.810183,40.826885 11.387681,41.031502 12.234831,41.435417 
	C16.160784,42.299831 19.793793,43.293694 23.478724,43.554790 
	C29.343306,43.970333 35.242496,43.897476 41.069576,44.494682 
	C41.060265,55.977726 41.108421,66.997269 41.084679,78.479515 
	C41.063675,101.955460 41.114571,124.968697 41.090839,148.446472 
	C41.010780,160.642715 40.974899,172.374619 41.043007,184.105896 
	C41.050526,185.400238 41.653095,186.691147 42.224251,188.174911 
	C42.711033,188.930176 42.953247,189.494171 43.125477,190.444672 
	C43.944958,200.294952 50.606987,204.569397 58.315414,208.158493 
	C58.178135,208.638107 58.089069,208.819046 58.000000,209.000000 
z"/>
<path fill="#382D32" opacity="1.000000" stroke="none" 
	d="
M187.853851,164.876343 
	C187.984344,165.532059 188.114838,166.187759 187.757385,167.204147 
	C152.033813,167.503830 116.798195,167.442841 81.268791,167.365662 
	C80.974228,167.903091 80.973450,168.456696 81.283905,169.142242 
	C93.400200,179.843857 92.723167,194.483444 79.693130,205.002213 
	C79.198265,205.492783 78.954544,205.951874 78.710831,206.410965 
	C79.127502,206.322281 79.544167,206.233597 80.431763,206.134155 
	C116.255661,206.125732 151.608627,206.119766 186.961594,206.149170 
	C189.286011,206.151093 191.610199,206.423294 194.002563,206.531052 
	C194.070648,206.492325 194.229431,206.710632 193.904327,207.273438 
	C193.386169,208.224167 193.193085,208.612091 193.000000,209.000000 
	C193.000000,209.000000 192.500000,209.000000 192.022705,208.634186 
	C190.885727,208.195251 190.226059,208.058289 189.566360,208.058105 
	C148.577499,208.046921 107.588638,208.038834 66.599838,208.085922 
	C65.399544,208.087311 64.199928,208.681961 63.000000,209.000000 
	C62.250000,209.000000 61.500000,209.000000 60.388626,208.717468 
	C59.707314,207.990234 59.387379,207.545532 59.112400,206.615387 
	C59.199810,205.807877 59.242268,205.485825 59.733780,205.227386 
	C64.795776,206.330444 69.380592,206.912521 73.825974,204.604279 
	C72.208084,203.845337 70.589333,203.713562 68.975220,203.538910 
	C58.484257,202.403778 51.215271,193.257263 51.924328,182.095688 
	C52.562801,172.045135 60.552853,164.758331 70.937531,164.819214 
	C73.597710,164.834824 76.256943,165.124680 78.916473,165.122528 
	C112.385117,165.095322 145.853729,165.037521 179.322342,164.988022 
	C180.922073,164.985657 182.521790,164.987717 184.558609,164.987717 
	C184.558609,162.282135 184.558609,160.304977 184.558609,158.327805 
	C184.558640,117.531113 184.573898,76.734413 184.540146,35.937756 
	C184.535767,30.631016 184.278900,25.324488 184.472992,20.003494 
	C185.473541,19.968952 186.140076,19.948774 186.806595,19.928596 
	C186.831116,20.421318 186.855637,20.914040 186.648254,21.962997 
	C186.699890,23.355537 186.983444,24.191843 187.266983,25.028149 
	C187.385880,25.287928 187.504791,25.547705 187.131454,26.159660 
	C186.446884,27.799488 186.089615,29.086899 186.087784,30.374821 
	C186.069351,43.267849 186.109390,56.160957 186.091858,69.517303 
	C186.082565,79.634239 186.114349,89.287918 186.115234,99.412888 
	C186.074783,119.878532 186.022430,139.873138 186.133774,159.866821 
	C186.143097,161.539795 187.254486,163.206635 187.853851,164.876343 
M65.203011,168.408142 
	C54.888813,173.152054 51.606194,184.818344 57.765518,193.689850 
	C60.863297,198.151688 64.787163,198.299133 69.152542,196.912384 
	C73.322594,195.587692 75.987442,192.757339 76.491295,187.786896 
	C72.512291,187.589249 68.885666,187.465012 65.267792,187.214478 
	C61.215843,186.933899 59.501816,183.752182 61.620232,180.286072 
	C63.860317,176.620895 67.420494,175.664291 71.506454,175.796951 
	C75.370743,175.922424 79.242294,175.823914 83.423119,175.823914 
	C78.863899,168.701157 73.476875,166.453476 65.203011,168.408142 
M79.801147,184.755188 
	C79.813652,192.310486 76.370163,197.611237 68.389099,200.514465 
	C80.607567,201.945343 83.977570,200.300415 86.457016,191.965485 
	C87.059891,189.938828 87.206184,187.693817 87.132996,185.563950 
	C86.906418,178.969894 84.849236,177.667633 78.191673,179.790283 
	C78.686028,181.177780 79.181252,182.567703 79.801147,184.755188 
z"/>
<path fill="#3C3137" opacity="1.000000" stroke="none" 
	d="
M41.127048,44.031181 
	C35.242496,43.897476 29.343306,43.970333 23.478724,43.554790 
	C19.793793,43.293694 16.160784,42.299831 12.068680,41.173573 
	C11.072944,40.495831 10.513009,40.279236 9.953074,40.062645 
	C9.953074,40.062645 9.985345,40.010780 9.936940,39.735893 
	C9.569289,38.986309 9.250043,38.511616 8.930796,38.036922 
	C8.930797,38.036922 8.858783,38.164314 9.021897,37.912239 
	C9.516700,37.410084 9.848389,37.160007 10.623314,36.991219 
	C22.583702,38.429504 28.331278,35.188370 29.737774,26.015692 
	C25.230610,26.015692 20.756433,26.361610 16.380163,25.857534 
	C14.436168,25.633619 11.699083,24.045744 11.127715,22.436035 
	C10.536751,20.771116 11.498434,17.410925 12.915647,16.427464 
	C15.471660,14.653744 18.812159,13.485187 21.935728,13.173490 
	C27.068317,12.661315 32.289276,13.034702 38.051949,13.034702 
	C32.363487,4.007175 24.202900,1.582673 13.251060,4.306772 
	C13.021801,3.348964 12.930822,2.965667 12.900703,2.319444 
	C12.974376,1.704345 12.987188,1.352173 13.000000,1.000000 
	C13.750000,1.000000 14.500000,1.000000 15.822275,1.222799 
	C17.263033,1.297066 18.131517,1.148533 19.000000,1.000000 
	C69.354225,1.000000 119.708458,1.000000 170.531342,1.000000 
	C171.171158,1.588241 171.342331,2.176482 171.677673,3.387594 
	C171.778076,4.297533 171.714294,4.584600 171.235977,4.784308 
	C167.559952,4.150861 164.299118,3.134703 161.036835,3.130012 
	C119.725952,3.070604 78.414841,3.153676 37.103832,3.221293 
	C35.913322,3.223242 34.723190,3.454869 32.649334,3.671844 
	C41.856277,10.140211 44.330593,18.430244 44.277431,28.467031 
	C44.018906,77.274063 44.139545,126.083229 44.187515,174.891571 
	C44.192406,179.865997 44.608479,184.840027 44.423809,189.872772 
	C43.741070,189.973618 43.468266,190.015900 43.195465,190.058167 
	C42.953247,189.494171 42.711033,188.930176 42.337563,187.719360 
	C42.131359,174.047318 42.056412,161.022095 42.107204,147.543121 
	C42.160149,124.058754 42.087349,101.028122 42.087029,77.533859 
	C42.159687,67.536057 42.204033,58.001465 42.113873,48.468147 
	C42.099857,46.986183 41.471378,45.510025 41.127048,44.031181 
M41.837776,29.557758 
	C41.834396,27.896936 41.868286,26.235060 41.821400,24.575466 
	C41.574257,15.828024 39.592735,14.385504 30.929207,16.611887 
	C35.879467,28.145243 32.687317,34.775829 18.612730,40.959858 
	C23.099895,41.235050 26.862656,41.650742 30.626617,41.661922 
	C41.838352,41.695236 41.838535,41.633163 41.837776,29.557758 
z"/>
<path fill="#463D44" opacity="1.000000" stroke="none" 
	d="
M739.834045,33.901802 
	C740.347351,33.590569 740.860657,33.279331 741.687012,32.984047 
	C742.000000,80.020897 742.000000,127.041786 741.738464,174.529434 
	C741.307922,174.953278 741.138977,174.910370 740.978638,174.407379 
	C740.992432,129.522858 741.014648,85.098366 740.952820,40.673988 
	C740.949646,38.416077 740.223511,36.159176 739.834045,33.901802 
z"/>
<path fill="#A19EA0" opacity="1.000000" stroke="none" 
	d="
M63.468658,209.000000 
	C64.199928,208.681961 65.399544,208.087311 66.599838,208.085922 
	C107.588638,208.038834 148.577499,208.046921 189.566360,208.058105 
	C190.226059,208.058289 190.885727,208.195251 191.772705,208.634186 
	C149.312439,209.000000 106.624878,209.000000 63.468658,209.000000 
z"/>
<path fill="#453A3F" opacity="1.000000" stroke="none" 
	d="
M12.839844,2.582371 
	C12.930822,2.965667 13.021801,3.348964 13.022533,4.512050 
	C10.879368,7.170484 8.429314,8.764771 6.844280,10.978434 
	C0.905572,19.272446 2.068726,27.411421 10.180077,36.909931 
	C9.848389,37.160007 9.516700,37.410084 8.956459,37.879501 
	C6.388197,35.403408 4.048489,32.707970 1.354390,30.006264 
	C1.000000,25.310745 1.000000,20.621489 1.362340,15.459925 
	C4.344557,9.880209 7.108650,4.902020 12.839844,2.582371 
z"/>
<path fill="#000000" opacity="1.000000" stroke="none" 
	d="
M12.900703,2.319444 
	C7.108650,4.902020 4.344557,9.880209 1.362340,14.993807 
	C1.000000,10.417214 1.000000,5.834429 1.000000,1.000000 
	C4.676837,1.000000 8.359243,1.000000 12.520824,1.000000 
	C12.987188,1.352173 12.974376,1.704345 12.900703,2.319444 
z"/>
<path fill="#C3C1C2" opacity="1.000000" stroke="none" 
	d="
M740.969971,174.867447 
	C741.138977,174.910370 741.307922,174.953278 741.738464,174.998093 
	C742.000000,175.444443 742.000000,175.888901 742.000000,176.666672 
	C735.918518,177.005798 729.835754,177.076355 723.756470,176.963821 
	C722.510864,176.940750 721.277954,176.231812 720.478271,175.434692 
	C727.601624,174.976059 734.285767,174.921753 740.969971,174.867447 
z"/>
<path fill="#453A3F" opacity="1.000000" stroke="none" 
	d="
M18.625000,1.000000 
	C18.131517,1.148533 17.263033,1.297066 16.197275,1.222799 
	C16.750000,1.000000 17.500000,1.000000 18.625000,1.000000 
z"/>
<path fill="#5F4D4C" opacity="1.000000" stroke="none" 
	d="
M193.333328,209.000000 
	C193.193085,208.612091 193.386169,208.224167 193.999207,207.612579 
	C194.465790,207.614929 194.512390,207.840942 194.459503,208.092773 
	C194.360001,208.118591 194.219849,207.968201 194.219849,207.968201 
	C194.272751,208.198486 194.325638,208.428772 194.689270,208.829529 
	C194.555557,209.000000 194.111099,209.000000 193.333328,209.000000 
z"/>
<path fill="#000000" opacity="1.000000" stroke="none" 
	d="
M59.067444,207.100845 
	C59.387379,207.545532 59.707314,207.990234 60.013626,208.717468 
	C60.000000,209.000000 59.500000,209.000000 59.115608,208.729584 
	C58.698711,208.260483 58.666206,208.061813 58.766060,207.686188 
	C58.898418,207.509216 59.067444,207.100845 59.067444,207.100845 
z"/>
<path fill="#382D32" opacity="1.000000" stroke="none" 
	d="
M58.633705,207.863144 
	C58.666206,208.061813 58.698711,208.260483 58.865608,208.729584 
	C59.000000,209.000000 58.500000,209.000000 58.250000,209.000000 
	C58.089069,208.819046 58.178135,208.638107 58.382774,208.151138 
	C58.498348,207.845123 58.633705,207.863144 58.633705,207.863144 
z"/>
<path fill="#2C2129" opacity="1.000000" stroke="none" 
	d="
M287.691254,173.104340 
	C287.691254,173.104340 287.364655,173.078522 286.994720,172.763351 
	C282.686798,170.704559 278.790771,168.853943 274.784912,167.283356 
	C273.602539,166.819778 272.109924,167.147446 270.759491,167.112518 
	C270.759491,167.112534 270.400055,167.104614 270.210449,166.735840 
	C266.325623,161.266357 262.630341,156.165665 258.935089,151.064972 
	C258.935089,151.064972 258.976593,151.010635 258.978882,150.609192 
	C258.987457,148.806000 258.993713,147.404251 259.000000,146.002518 
	C260.420685,145.676834 261.841370,145.351166 263.735596,145.123962 
	C264.209137,145.222458 264.636810,145.261719 264.636810,145.261719 
	C264.636810,145.261719 264.957214,144.939285 264.957214,144.939285 
	C264.957214,144.939285 264.984589,144.990768 265.398926,144.989212 
	C267.849274,144.314041 269.885284,143.640427 271.921295,142.966827 
	C271.921295,142.966827 271.952240,142.895279 272.402893,142.940704 
	C275.236664,142.322937 277.619720,141.659760 280.002808,140.996582 
	C280.438446,140.981369 280.874115,140.966141 281.701355,141.261292 
	C283.427704,142.727295 284.762451,143.882935 286.097198,145.038574 
	C286.097198,145.038574 286.148560,145.267471 286.156830,145.754120 
	C286.831329,146.854309 287.497528,147.467850 288.163757,148.081375 
	C288.163757,148.081375 288.171539,148.298233 288.263245,148.704712 
	C288.937836,149.426270 289.520721,149.741364 290.103638,150.056442 
	C290.103638,150.056442 290.150055,150.295486 290.142761,150.798004 
	C292.438141,153.174103 294.740814,155.047668 297.043488,156.921234 
	C297.043488,156.921234 297.050385,156.947464 297.135376,157.282288 
	C298.154205,158.052185 299.088013,158.487244 300.021851,158.922302 
	C300.021851,158.922302 300.040070,158.942276 300.150024,159.280991 
	C301.506622,160.051834 302.753296,160.483963 303.999939,160.916077 
	C303.999939,160.916077 304.062469,160.909088 304.200623,161.308044 
	C310.548492,161.965790 316.757568,162.250702 322.969818,162.413849 
	C323.315948,162.422928 323.688477,161.425308 324.048737,160.896255 
	C324.048737,160.896255 324.258423,160.835800 324.768616,160.879242 
	C326.228363,160.214844 327.177948,159.506989 328.127533,158.799133 
	C328.265076,158.599579 328.423828,158.418640 329.043884,158.254517 
	C334.615021,157.456970 338.090271,154.014359 338.962128,148.863510 
	C338.628571,146.504990 338.295013,144.146469 338.193787,141.164368 
	C337.604279,138.051620 336.782440,135.562469 335.960632,133.073334 
	C335.960602,133.073334 335.949738,133.047745 335.902374,132.688034 
	C333.843109,130.568100 331.831207,128.807861 329.819305,127.047623 
	C329.322571,126.862526 328.825836,126.677422 328.092468,125.995422 
	C326.852417,125.356400 325.848999,125.214279 324.845581,125.072159 
	C324.429474,125.032692 324.013397,124.993225 323.258362,124.567108 
	C321.910919,121.108833 320.042480,121.671013 317.989319,123.013733 
	C317.538086,122.986938 317.086853,122.960144 316.217224,122.553665 
	C313.943115,119.145432 311.553406,119.434647 308.946838,121.071121 
	C308.946838,121.071121 308.469818,121.015709 308.197632,120.608505 
	C307.617554,119.643028 307.397278,118.675606 306.988556,118.588097 
	C301.236237,117.356453 295.458282,116.244591 289.686554,115.103645 
	C289.320007,115.090790 288.953430,115.077927 288.225983,114.733246 
	C283.862915,112.579025 279.860779,110.756630 275.858612,108.934235 
	C275.858612,108.934235 275.853119,108.651390 275.857544,108.138153 
	C271.089813,100.809738 266.318817,93.993782 261.535614,87.186386 
	C261.459808,87.078499 261.234619,87.075546 261.079163,87.023621 
	C260.716003,85.932816 260.352844,84.842010 260.224487,83.100021 
	C260.282745,79.614876 260.106232,76.780914 259.929718,73.946945 
	C260.272705,72.848198 260.615723,71.749451 261.368500,70.170837 
	C262.150696,67.684746 262.523132,65.678513 262.895569,63.672279 
	C262.895569,63.672276 262.938599,63.335125 263.294250,63.072327 
	C265.074432,60.191620 266.498993,57.573711 267.923553,54.955803 
	C267.923553,54.955807 267.953613,54.957539 268.271576,54.868820 
	C269.334564,53.135067 270.079620,51.490028 270.824646,49.844990 
	C271.019714,49.599072 271.242859,49.382053 271.941895,49.161098 
	C272.951080,48.700439 273.512451,48.272617 274.073853,47.844791 
	C274.209900,47.640511 274.377777,47.467018 274.942932,47.060883 
	C275.528198,46.519642 275.747955,46.241844 275.967743,45.964050 
	C275.967743,45.964050 275.967621,45.949871 276.321167,45.947876 
	C277.427307,45.217190 278.179901,44.488495 278.932465,43.759804 
	C279.077362,43.534264 279.245911,43.328030 279.920959,43.162205 
	C284.602997,41.788536 288.802094,40.393776 293.001221,38.999012 
	C293.832245,38.768078 294.663269,38.537148 296.159485,38.203079 
	C297.617859,38.209412 298.411102,38.318882 299.544678,38.592308 
	C303.232941,38.582882 306.580811,38.409496 310.383057,38.246452 
	C313.552643,38.169338 316.267822,38.081886 318.983002,37.994438 
	C320.384369,38.012005 321.785706,38.029575 323.692200,38.431759 
	C327.133484,39.519802 330.069641,40.223236 333.005768,40.926666 
	C333.005768,40.926666 333.043060,40.920589 333.147766,41.279442 
	C335.342224,42.400063 337.431946,43.161827 339.521698,43.923595 
	C339.827820,43.789101 340.146210,43.746685 340.813416,44.177395 
	C342.097687,45.009468 343.045471,45.460495 343.993256,45.911522 
	C343.993256,45.911514 344.065643,45.900856 344.125000,46.240807 
	C344.799744,47.027119 345.415161,47.473480 346.030548,47.919838 
	C346.030548,47.919834 346.073212,47.929310 346.130524,48.253983 
	C346.804962,49.027164 347.422058,49.475677 348.039185,49.924194 
	C348.039185,49.924194 348.055756,49.945965 348.124023,50.261940 
	C348.818207,51.047070 349.444122,51.516224 350.070007,51.985374 
	C350.070007,51.985374 350.538055,52.002529 350.783020,52.389778 
	C351.992981,54.861092 352.844147,57.007652 353.946899,59.016071 
	C356.174683,63.073502 355.103333,65.610039 350.735870,67.104889 
	C349.639832,67.480042 348.916504,68.944229 348.021912,69.907928 
	C347.018036,69.977493 346.014191,70.047058 344.336670,69.907776 
	C341.072784,68.818604 338.463562,67.854919 336.847504,71.251343 
	C335.473206,71.503166 334.098877,71.754982 332.375549,71.661057 
	C331.325165,70.199387 330.623810,69.083473 329.922455,67.967560 
	C329.922455,67.967567 329.854065,67.741058 329.897430,67.200836 
	C328.647644,60.205063 326.172974,54.707134 318.929138,53.074722 
	C318.929138,53.074722 318.966614,53.046993 318.867828,52.730171 
	C317.489960,52.306805 316.210907,52.200260 314.931824,52.093716 
	C314.931824,52.093716 314.459747,52.014389 314.183960,51.584770 
	C311.276062,48.365601 301.618774,47.913383 299.285400,50.519207 
	C299.006134,50.831108 299.092346,51.470287 299.009155,51.957775 
	C298.304382,52.004555 297.599579,52.051331 296.302917,51.911263 
	C292.911530,53.005821 290.221832,54.702721 287.288544,55.478172 
	C281.939117,56.892368 283.145142,59.760857 285.076965,63.055882 
	C285.076965,63.055882 285.018097,63.531727 284.604492,63.805336 
	C280.738129,67.133224 281.026276,71.420624 284.855103,73.961594 
	C284.934723,74.361710 285.014313,74.761826 284.929535,75.683609 
	C285.190033,77.111450 285.614929,78.017616 286.039856,78.923775 
	C286.039856,78.923775 286.070190,78.939041 286.050781,79.335190 
	C287.043182,80.805595 288.054993,81.879860 289.066803,82.954117 
	C289.066803,82.954117 289.010376,83.001526 289.015564,83.343956 
	C289.721741,84.782013 290.422699,85.877647 291.123657,86.973282 
	C291.123657,86.973282 291.561646,86.982063 291.692749,87.255188 
	C294.894775,91.632317 298.636169,94.630196 304.018982,94.919952 
	C304.018982,94.919952 304.045105,94.932785 304.176758,95.302780 
	C306.033264,96.079163 307.758057,96.485558 309.482880,96.891953 
	C309.824432,96.927170 310.166016,96.962402 310.869293,97.349960 
	C312.575317,97.713158 313.919647,97.724014 315.263947,97.734879 
	C315.989746,98.076073 316.715546,98.417267 317.842041,99.222633 
	C320.518921,99.759827 322.795074,99.832848 325.071259,99.905869 
	C325.071259,99.905869 325.541962,99.984009 325.811615,100.398087 
	C330.551300,102.512123 335.021362,104.212082 339.491394,105.912041 
	C339.823029,105.883278 340.154694,105.854515 340.802673,106.233765 
	C344.105621,108.401962 347.092194,110.162170 350.078766,111.922371 
	C350.078766,111.922371 350.070740,111.972458 350.140930,112.278442 
	C350.920380,113.023705 351.629608,113.462982 352.338837,113.902260 
	C352.338837,113.902260 352.665405,113.916840 352.839691,114.286926 
	C354.015991,115.743225 355.018036,116.829430 356.020050,117.915642 
	C356.020050,117.915642 356.098450,117.933342 356.103271,118.326447 
	C357.087402,120.122108 358.066650,121.524673 359.045929,122.927231 
	C359.045929,122.927231 359.058350,122.951515 359.061035,123.382004 
	C359.375488,128.915390 359.720947,134.016525 359.986328,139.121841 
	C360.144562,142.165741 360.177002,145.216187 360.265991,148.263687 
	C360.265961,148.263687 360.054413,148.640900 359.612091,148.862411 
	C356.784973,150.844620 354.574158,152.679733 356.154633,156.135834 
	C355.982635,156.382294 355.781067,156.601578 355.006775,156.956543 
	C351.669403,160.425873 348.875214,163.732346 346.080994,167.038818 
	C346.080994,167.038818 346.061920,167.101929 345.736511,166.931213 
	C341.380859,166.587067 338.323700,167.960617 336.982361,172.062088 
	C336.982361,172.062088 336.632324,172.151093 336.202240,171.945557 
	C333.257446,170.389740 331.712616,171.183792 331.030273,173.884766 
	C331.030273,173.884766 330.673248,174.072723 330.209656,173.900146 
	C327.181488,174.127029 324.616913,174.526520 322.052338,174.925995 
	C321.592896,174.946228 321.133453,174.966446 319.863342,174.968323 
	C313.731018,175.283279 308.409363,175.616562 303.087677,175.949860 
	C300.950226,175.925079 298.812775,175.900284 296.288574,175.506805 
	C293.987671,171.138931 290.478485,173.578873 287.691254,173.104340 
z"/>
<path fill="#30262E" opacity="1.000000" stroke="none" 
	d="
M583.828796,176.088669 
	C574.933777,176.005814 567.127441,172.541336 560.020508,167.677887 
	C552.282776,162.382767 548.326050,154.237183 546.450500,145.415024 
	C543.455017,131.325073 544.216675,117.600868 551.425110,104.474411 
	C557.312256,93.753952 566.495789,88.163620 577.807739,85.664574 
	C593.651672,82.164330 608.924622,83.517380 622.404724,93.506783 
	C631.960754,100.588203 637.199829,110.496452 637.918274,122.230400 
	C638.396545,130.042862 638.477478,138.212875 636.715820,145.750656 
	C634.116821,156.871155 628.408875,166.307480 616.965942,171.324875 
	C611.363464,173.781418 605.952026,176.040863 599.010498,175.824982 
	C593.437683,175.806213 588.633240,175.947433 583.828796,176.088669 
M574.094421,108.464180 
	C573.497192,109.163162 572.432983,109.824898 572.373779,110.566780 
	C571.639404,119.776337 570.862854,128.991211 570.551819,138.220032 
	C570.469421,140.664276 571.935486,143.160675 572.832458,146.486084 
	C573.797302,149.803711 574.251282,153.387619 575.817017,156.392075 
	C582.046814,168.345901 594.408569,171.152069 603.983521,161.114059 
	C608.499817,156.379349 609.358948,150.822311 611.603760,144.772293 
	C612.011963,136.782684 612.537048,128.796051 612.740173,120.801224 
	C612.786682,118.968971 611.724426,117.108559 611.005676,114.470673 
	C610.246521,111.959686 609.857544,109.253143 608.654785,106.976486 
	C605.712646,101.407303 602.362122,95.588745 595.761841,94.170212 
	C585.466858,91.957603 577.280090,97.841667 574.094421,108.464180 
z"/>
<path fill="#D6AE94" opacity="1.000000" stroke="none" 
	d="
M193.994354,207.446198 
	C194.219849,207.968201 194.360001,208.118591 194.533615,207.621948 
	C194.449646,206.940140 194.192078,206.754959 193.934494,206.569794 
	C191.610199,206.423294 189.286011,206.151093 186.961594,206.149170 
	C151.608627,206.119766 116.255661,206.125732 80.398178,205.841019 
	C79.910545,205.362656 79.927422,205.166702 79.944290,204.970734 
	C92.723167,194.483444 93.400200,179.843857 81.281677,168.844299 
	C81.166344,168.070221 81.364456,167.726028 81.562576,167.381836 
	C116.798195,167.442841 152.033813,167.503830 187.675659,167.529175 
	C189.432388,167.619034 190.782883,167.744522 192.748016,168.063080 
	C193.541931,168.229004 193.721222,168.201889 193.900528,168.174789 
	C194.033569,168.434799 194.242859,168.595627 194.886108,168.844208 
	C195.243835,169.031174 195.689911,169.148010 195.689911,169.148010 
	C195.689911,169.148010 196.121658,168.986145 196.121658,168.986145 
	C196.121658,168.986145 196.532959,168.882935 196.502472,168.632111 
	C196.471985,168.381287 196.478195,168.472488 196.478195,168.472488 
	C197.966003,169.655792 199.453812,170.839096 201.299316,172.178589 
	C201.657013,172.334763 201.631104,172.379608 201.631104,172.379608 
	C202.050598,172.961990 202.470093,173.544373 203.129333,174.640930 
	C203.696167,175.507309 204.023270,175.859543 204.350372,176.211761 
	C204.350372,176.211761 204.361008,176.450867 204.546692,176.870789 
	C205.271866,182.640823 205.811356,187.990936 206.350845,193.341064 
	C206.286041,193.507645 206.221222,193.674240 205.982178,194.132843 
	C205.807968,194.424835 205.665680,194.697662 205.418671,194.920013 
	C203.025848,197.680435 200.880020,200.218506 198.497452,203.091492 
	C198.456146,203.617615 198.651581,203.808838 198.918243,204.004105 
	C198.989456,204.008163 198.997421,203.865707 198.632477,203.595245 
	C197.992432,203.451431 197.717346,203.578064 197.154633,203.693924 
	C196.169968,204.239120 195.472931,204.795090 194.588745,205.319168 
	C194.111069,205.351776 193.991653,205.529541 194.043381,205.820602 
	C193.951874,206.188477 193.860382,206.556335 193.994354,207.446198 
z"/>
<path fill="#30262E" opacity="1.000000" stroke="none" 
	d="
M397.688721,132.617188 
	C401.811920,152.774109 419.903473,163.717804 439.622437,155.493896 
	C443.471802,153.888504 447.318817,152.277557 452.089935,150.283386 
	C452.089935,155.058289 453.458832,159.585114 451.811951,162.243835 
	C448.104492,168.229080 441.839233,171.489456 435.109650,174.042557 
	C426.667358,177.245438 418.012848,176.178925 409.590668,175.822113 
	C396.041962,175.248108 380.753784,161.407318 376.965698,147.100800 
	C376.683868,137.848541 376.343719,129.404388 376.003571,120.960220 
	C375.901947,119.688026 375.404755,118.291756 375.758972,117.162552 
	C379.973511,103.727180 386.947327,93.167511 400.849060,87.138657 
	C410.242340,83.065002 419.540466,82.316505 428.958496,83.277283 
	C440.086945,84.412529 449.293762,89.676109 453.648651,101.011269 
	C454.991028,104.505264 454.697906,107.208038 450.585724,108.209755 
	C447.563293,108.946007 444.478851,109.814049 441.420898,109.818466 
	C440.279602,109.820122 438.410034,107.693718 438.106842,106.274033 
	C435.719269,95.094322 428.580841,91.184380 419.236908,92.185204 
	C408.745605,93.308922 399.832703,102.776939 397.880646,113.349159 
	C397.794952,113.813225 397.426514,114.225090 396.714600,115.227463 
	C395.154541,121.536568 393.678375,127.313194 397.688721,132.617188 
z"/>
<path fill="#31272F" opacity="1.000000" stroke="none" 
	d="
M664.053345,45.972710 
	C670.772034,41.630844 677.490723,37.288994 684.209351,32.947144 
	C684.788208,33.193607 685.367065,33.440071 685.945923,33.686535 
	C685.945923,40.520309 685.945923,47.354084 685.533325,54.830479 
	C685.002441,57.624233 684.782349,59.775303 684.781067,61.926506 
	C684.760132,97.533653 684.766663,133.140808 684.767090,168.747955 
	C684.767090,170.684052 684.767151,172.620163 684.767151,175.032776 
	C676.706726,175.032776 669.296570,175.032776 661.886414,175.032776 
	C661.886414,175.032776 661.967529,175.036041 662.248901,174.675842 
	C662.602234,173.656097 662.736877,172.996597 662.737122,172.337036 
	C662.752686,132.117371 662.764465,91.897705 662.729187,51.678085 
	C662.728088,50.414043 662.230530,49.150436 661.964355,47.886631 
	C661.964355,47.886631 661.996704,47.955093 662.342102,48.117714 
	C662.773010,47.827477 662.858521,47.374619 662.943970,46.921757 
	C662.943970,46.921753 662.995544,46.992538 663.295105,47.129410 
	C663.747559,46.835094 663.900452,46.403904 664.053345,45.972710 
z"/>
<path fill="#2C2129" opacity="1.000000" stroke="none" 
	d="
M740.978638,174.407379 
	C734.285767,174.921753 727.601624,174.976059 720.451416,174.992889 
	C719.985413,174.955414 720.069519,174.993759 720.031982,174.563538 
	C720.001343,132.061356 720.008301,89.989388 720.015259,47.917416 
	C723.483337,45.154869 726.851440,42.252831 730.451538,39.674625 
	C733.248413,37.671658 736.334595,36.072632 739.563110,34.097931 
	C740.223511,36.159176 740.949646,38.416077 740.952820,40.673988 
	C741.014648,85.098366 740.992432,129.522858 740.978638,174.407379 
z"/>
<path fill="#31272F" opacity="1.000000" stroke="none" 
	d="
M480.945862,93.036682 
	C486.222290,89.493538 491.498749,85.950401 497.461945,81.946091 
	C499.242493,89.430450 500.738495,95.718781 502.405731,102.726837 
	C504.693268,99.070770 506.383575,95.958115 508.459900,93.128738 
	C514.432617,84.989777 525.532837,82.672089 534.257690,87.575638 
	C538.821411,90.140541 541.340454,95.749687 539.875854,100.696884 
	C539.556641,101.775047 538.381348,102.798195 537.346558,103.432976 
	C531.728027,106.879578 526.030029,110.196556 520.089172,113.718323 
	C518.503784,110.103851 516.926331,106.507263 515.201477,102.574776 
	C507.635712,107.348694 505.474670,114.171211 503.565674,121.992249 
	C503.121704,139.784195 503.052216,156.944061 502.982727,174.103928 
	C502.982758,174.103928 503.064514,174.577652 502.556824,174.727966 
	C495.089722,174.884705 488.130310,174.891129 481.109619,174.438965 
	C481.014221,146.999146 480.980042,120.017914 480.945862,93.036682 
z"/>
<path fill="#CDCACD" opacity="1.000000" stroke="none" 
	d="
M719.576782,47.969025 
	C720.008301,89.989388 720.001343,132.061356 720.015381,174.606674 
	C719.355225,173.578842 718.083374,172.079300 718.079163,170.576248 
	C717.970154,131.159897 717.980530,91.743141 718.040771,52.326550 
	C718.042969,50.890690 718.756348,49.455921 719.576782,47.969025 
z"/>
<path fill="#C3C1C2" opacity="1.000000" stroke="none" 
	d="
M662.047119,175.416275 
	C669.296570,175.032776 676.706726,175.032776 684.767151,175.032776 
	C684.767151,172.620163 684.767090,170.684052 684.767090,168.747955 
	C684.766663,133.140808 684.760132,97.533653 684.781067,61.926506 
	C684.782349,59.775303 685.002441,57.624233 685.520020,55.307755 
	C685.946350,94.371208 686.002319,133.600098 685.882141,172.828445 
	C685.877808,174.229340 684.194824,176.780640 683.188049,176.835144 
	C676.725891,177.184998 670.233643,177.013519 663.752563,176.918427 
	C663.232300,176.910812 662.722473,176.189453 662.047119,175.416275 
z"/>
<path fill="#A9A5A8" opacity="1.000000" stroke="none" 
	d="
M480.505676,93.021149 
	C480.980042,120.017914 481.014221,146.999146 480.779968,174.477356 
	C480.291412,174.996597 480.071259,175.018875 479.851105,175.041153 
	C479.549835,174.019119 478.987457,172.997604 478.985474,171.975006 
	C478.936310,146.592102 478.934387,121.209068 478.993225,95.826210 
	C478.995392,94.885193 479.692291,93.945786 480.505676,93.021149 
z"/>
<path fill="#D8D5D7" opacity="1.000000" stroke="none" 
	d="
M661.583191,48.109436 
	C662.230530,49.150436 662.728088,50.414043 662.729187,51.678085 
	C662.764465,91.897705 662.752686,132.117371 662.737122,172.337036 
	C662.736877,172.996597 662.602234,173.656097 662.245728,174.716293 
	C661.640991,173.937073 661.042114,172.757507 661.040771,171.577255 
	C660.994629,130.988266 661.004333,90.399185 661.015320,49.810135 
	C661.015442,49.317486 661.137085,48.824871 661.583191,48.109436 
z"/>
<path fill="#6D676E" opacity="1.000000" stroke="none" 
	d="
M187.710861,164.492523 
	C187.254486,163.206635 186.143097,161.539795 186.133774,159.866821 
	C186.022430,139.873138 186.074783,119.878532 186.296570,99.429100 
	C186.508820,98.974030 186.873093,98.969543 186.873093,98.969543 
	C186.915237,118.897591 186.943222,138.825699 187.023743,158.753601 
	C187.030960,160.539337 187.378418,162.323700 187.710861,164.492523 
z"/>
<path fill="#322830" opacity="1.000000" stroke="none" 
	d="
M348.336029,69.847946 
	C348.916504,68.944229 349.639832,67.480042 350.735870,67.104889 
	C355.103333,65.610039 356.174683,63.073502 353.946899,59.016071 
	C352.844147,57.007652 351.992981,54.861092 351.016998,52.399780 
	C356.539581,56.135902 358.275177,61.800625 357.818909,68.834084 
	C354.721008,69.156372 351.685577,69.472168 348.336029,69.847946 
z"/>
<path fill="#878186" opacity="1.000000" stroke="none" 
	d="
M375.637878,121.090027 
	C376.343719,129.404388 376.683868,137.848541 377.017639,146.726318 
	C372.821594,140.659958 372.276794,133.502853 373.412018,126.120697 
	C373.671753,124.431656 374.633514,122.850578 375.637878,121.090027 
z"/>
<path fill="#322830" opacity="1.000000" stroke="none" 
	d="
M260.979980,87.373199 
	C261.234619,87.075546 261.459808,87.078499 261.535614,87.186386 
	C266.318817,93.993782 271.089813,100.809738 275.876770,107.998016 
	C268.375122,104.624962 264.120911,97.933945 260.338470,90.889214 
	C259.939026,90.145264 260.672791,88.792885 260.979980,87.373199 
z"/>
<path fill="#322830" opacity="1.000000" stroke="none" 
	d="
M360.535095,147.982910 
	C360.177002,145.216187 360.144562,142.165741 359.986328,139.121841 
	C359.720947,134.016525 359.375488,128.915390 359.072662,123.389114 
	C360.442200,126.689651 362.725128,130.365158 362.923828,134.150055 
	C363.158356,138.618011 361.590607,143.180588 360.535095,147.982910 
z"/>
<path fill="#4C4042" opacity="1.000000" stroke="none" 
	d="
M171.650497,4.871668 
	C171.714294,4.584600 171.778076,4.297533 171.934097,3.579514 
	C179.964249,5.743666 183.555420,12.275632 186.718994,19.601398 
	C186.140076,19.948774 185.473541,19.968952 184.334122,19.674343 
	C181.710770,12.912222 177.433350,8.257536 171.650497,4.871668 
z"/>
<path fill="#EBEAEA" opacity="1.000000" stroke="none" 
	d="
M503.380829,173.903961 
	C503.052216,156.944061 503.121704,139.784195 503.545898,122.404686 
	C503.860046,139.358032 503.819489,156.531006 503.380829,173.903961 
z"/>
<path fill="#C3C1C2" opacity="1.000000" stroke="none" 
	d="
M480.026733,175.418274 
	C480.071259,175.018875 480.291412,174.996597 480.841187,174.935944 
	C488.130310,174.891129 495.089722,174.884705 502.509338,174.963608 
	C502.657440,175.687622 502.349152,176.881210 502.032684,176.883392 
	C495.124603,176.930862 488.215332,176.861191 481.307465,176.744522 
	C480.933868,176.738220 480.570526,176.125732 480.026733,175.418274 
z"/>
<path fill="#322830" opacity="1.000000" stroke="none" 
	d="
M285.246521,62.765167 
	C283.145142,59.760857 281.939117,56.892368 287.288544,55.478172 
	C290.221832,54.702721 292.911530,53.005821 295.954712,51.970592 
	C292.604279,55.635998 289.010193,59.055225 285.246521,62.765167 
z"/>
<path fill="#6D676E" opacity="1.000000" stroke="none" 
	d="
M186.132935,69.054047 
	C186.109390,56.160957 186.069351,43.267849 186.087784,30.374821 
	C186.089615,29.086899 186.446884,27.799488 186.970184,26.239786 
	C187.195526,40.009308 187.089874,54.050880 186.745529,68.555588 
	C186.506836,69.018730 186.132935,69.054047 186.132935,69.054047 
z"/>
<path fill="#5F4D4C" opacity="1.000000" stroke="none" 
	d="
M198.734192,202.756577 
	C200.880020,200.218506 203.025848,197.680435 205.621185,195.174072 
	C206.432617,195.429337 206.794525,195.652878 207.156433,195.876404 
	C205.371384,201.221786 201.666687,204.743729 196.117783,206.838379 
	C195.343018,206.247894 195.059448,205.799469 194.775879,205.351044 
	C195.472931,204.795090 196.169968,204.239120 197.331879,203.855515 
	C198.196960,203.973816 198.597198,203.919769 198.997421,203.865707 
	C198.997421,203.865707 198.989456,204.008163 199.068619,203.869720 
	C199.009918,203.406357 198.872055,203.081467 198.734192,202.756577 
z"/>
<path fill="#322830" opacity="1.000000" stroke="none" 
	d="
M258.851654,151.398163 
	C262.630341,156.165665 266.325623,161.266357 270.030701,166.738068 
	C266.214661,162.910400 262.338959,158.754700 258.630402,154.454819 
	C258.200989,153.956955 258.699768,152.658585 258.851654,151.398163 
z"/>
<path fill="#A9A5A8" opacity="1.000000" stroke="none" 
	d="
M397.823273,132.216858 
	C393.678375,127.313194 395.154541,121.536568 396.485840,115.566391 
	C397.140778,120.831604 397.549286,126.324074 397.823273,132.216858 
z"/>
<path fill="#382D32" opacity="1.000000" stroke="none" 
	d="
M206.747330,193.491409 
	C205.811356,187.990936 205.271866,182.640823 204.642838,176.942047 
	C205.322845,176.540619 206.379288,176.136154 206.815506,176.492004 
	C209.715698,178.858017 209.862579,190.510605 206.747330,193.491409 
z"/>
<path fill="#322830" opacity="1.000000" stroke="none" 
	d="
M299.429321,52.003529 
	C299.092346,51.470287 299.006134,50.831108 299.285400,50.519207 
	C301.618774,47.913383 311.276062,48.365601 313.947510,51.547554 
	C309.274414,51.976398 304.561981,52.012844 299.429321,52.003529 
z"/>
<path fill="#322830" opacity="1.000000" stroke="none" 
	d="
M289.767303,115.505798 
	C295.458282,116.244591 301.236237,117.356453 306.988556,118.588097 
	C307.397278,118.675606 307.617554,119.643028 307.958862,120.583145 
	C301.944214,119.279305 295.896118,117.593628 289.767303,115.505798 
z"/>
<path fill="#322830" opacity="1.000000" stroke="none" 
	d="
M318.898071,53.437065 
	C326.172974,54.707134 328.647644,60.205063 329.915222,67.083885 
	C326.215454,62.937908 322.541229,58.368656 318.898071,53.437065 
z"/>
<path fill="#322830" opacity="1.000000" stroke="none" 
	d="
M270.974060,167.400146 
	C272.109924,167.147446 273.602539,166.819778 274.784912,167.283356 
	C278.790771,168.853943 282.686798,170.704559 286.831299,172.751770 
	C285.574371,173.080017 283.928986,173.552811 282.681183,173.046280 
	C278.769775,171.458466 275.008209,169.501633 270.974060,167.400146 
z"/>
<path fill="#CDCACD" opacity="1.000000" stroke="none" 
	d="
M299.204315,38.428352 
	C298.411102,38.318882 297.617859,38.209412 296.431396,38.017090 
	C296.868622,37.280430 297.688629,36.076214 298.531219,36.060184 
	C305.080261,35.935589 311.633759,36.028229 318.185059,36.117264 
	C318.442871,36.120766 318.692017,36.765739 318.964111,37.553127 
	C316.267822,38.081886 313.552643,38.169338 310.185577,37.875244 
	C306.090576,37.805248 302.647430,38.116802 299.204315,38.428352 
z"/>
<path fill="#969195" opacity="1.000000" stroke="none" 
	d="
M303.454163,176.157837 
	C308.409363,175.616562 313.731018,175.283279 319.518524,174.976776 
	C319.333923,175.664154 318.679077,176.898651 318.033844,176.893646 
	C313.295013,176.856979 308.558136,176.572311 303.454163,176.157837 
z"/>
<path fill="#322830" opacity="1.000000" stroke="none" 
	d="
M323.610474,160.893372 
	C323.688477,161.425308 323.315948,162.422928 322.969818,162.413849 
	C316.757568,162.250702 310.548492,161.965790 304.207214,161.338821 
	C310.441193,160.943924 316.806702,160.917206 323.610474,160.893372 
z"/>
<path fill="#878186" opacity="1.000000" stroke="none" 
	d="
M186.091858,69.517303 
	C186.132935,69.054047 186.506836,69.018730 186.694550,69.023544 
	C186.920151,78.699982 186.958038,88.371597 186.934509,98.506378 
	C186.873093,98.969543 186.508820,98.974030 186.327484,98.957809 
	C186.114349,89.287918 186.082565,79.634239 186.091858,69.517303 
z"/>
<path fill="#322830" opacity="1.000000" stroke="none" 
	d="
M303.933533,94.582741 
	C298.636169,94.630196 294.894775,91.632317 291.911743,87.259514 
	C295.949127,89.408981 299.898621,91.827255 303.933533,94.582741 
z"/>
<path fill="#635A61" opacity="1.000000" stroke="none" 
	d="
M584.113647,176.417664 
	C588.633240,175.947433 593.437683,175.806213 598.623535,175.832779 
	C594.136108,176.249283 589.267334,176.497971 584.113647,176.417664 
z"/>
<path fill="#322830" opacity="1.000000" stroke="none" 
	d="
M339.335144,105.567604 
	C335.021362,104.212082 330.551300,102.512123 326.047272,100.435265 
	C330.401825,101.779968 334.790375,103.501572 339.335144,105.567604 
z"/>
<path fill="#322830" opacity="1.000000" stroke="none" 
	d="
M284.930756,73.515877 
	C281.026276,71.420624 280.738129,67.133224 284.577484,64.043541 
	C284.978180,67.028816 284.992310,70.049484 284.930756,73.515877 
z"/>
<path fill="#322830" opacity="1.000000" stroke="none" 
	d="
M292.693420,38.818962 
	C288.802094,40.393776 284.602997,41.788536 280.069824,43.028530 
	C283.952423,41.462139 288.169006,40.050522 292.693420,38.818962 
z"/>
<path fill="#322830" opacity="1.000000" stroke="none" 
	d="
M346.437622,167.059814 
	C348.875214,163.732346 351.669403,160.425873 354.822296,157.083405 
	C352.385376,160.391891 349.589813,163.736343 346.437622,167.059814 
z"/>
<path fill="#322830" opacity="1.000000" stroke="none" 
	d="
M275.954254,109.295235 
	C279.860779,110.756630 283.862915,112.579025 287.951263,114.750092 
	C284.041595,113.284576 280.045746,111.470406 275.954254,109.295235 
z"/>
<path fill="#322830" opacity="1.000000" stroke="none" 
	d="
M338.658569,149.035431 
	C338.090271,154.014359 334.615021,157.456970 329.179077,158.134552 
	C332.034485,155.080032 335.194733,152.143677 338.658569,149.035431 
z"/>
<path fill="#322830" opacity="1.000000" stroke="none" 
	d="
M350.051697,111.569763 
	C347.092194,110.162170 344.105621,108.401962 341.048004,106.288101 
	C343.992859,107.695335 347.008759,109.456245 350.051697,111.569763 
z"/>
<path fill="#322830" opacity="1.000000" stroke="none" 
	d="
M337.348999,172.083069 
	C338.323700,167.960617 341.380859,166.587067 345.704071,166.925247 
	C343.236603,168.761337 340.476135,170.432693 337.348999,172.083069 
z"/>
<path fill="#322830" opacity="1.000000" stroke="none" 
	d="
M287.873779,173.441528 
	C290.478485,173.578873 293.987671,171.138931 295.940521,175.521652 
	C293.338257,175.196365 290.697266,174.487534 287.873779,173.441528 
z"/>
<path fill="#322830" opacity="1.000000" stroke="none" 
	d="
M322.416138,175.011963 
	C324.616913,174.526520 327.181488,174.127029 330.038208,174.006439 
	C327.813568,174.556183 325.296753,174.827057 322.416138,175.011963 
z"/>
<path fill="#322830" opacity="1.000000" stroke="none" 
	d="
M329.882690,127.394089 
	C331.831207,128.807861 333.843109,130.568100 335.888733,132.685303 
	C333.930359,131.275055 331.938202,129.507812 329.882690,127.394089 
z"/>
<path fill="#322830" opacity="1.000000" stroke="none" 
	d="
M356.436188,155.943573 
	C354.574158,152.679733 356.784973,150.844620 359.516449,149.056335 
	C358.814667,151.269608 357.766205,153.510468 356.436188,155.943573 
z"/>
<path fill="#322830" opacity="1.000000" stroke="none" 
	d="
M332.837463,40.602654 
	C330.069641,40.223236 327.133484,39.519802 324.111938,38.456345 
	C326.907379,38.823757 329.788269,39.551197 332.837463,40.602654 
z"/>
<path fill="#322830" opacity="1.000000" stroke="none" 
	d="
M337.125366,71.493164 
	C338.463562,67.854919 341.072784,68.818604 343.966095,69.978622 
	C341.980530,70.750542 339.691864,71.242767 337.125366,71.493164 
z"/>
<path fill="#322830" opacity="1.000000" stroke="none" 
	d="
M267.562195,54.918015 
	C266.498993,57.573711 265.074432,60.191620 263.324768,62.905144 
	C264.400024,60.293915 265.800415,57.587070 267.562195,54.918015 
z"/>
<path fill="#322830" opacity="1.000000" stroke="none" 
	d="
M297.095703,156.560425 
	C294.740814,155.047668 292.438141,153.174103 290.136658,150.919617 
	C292.474579,152.425659 294.811249,154.312637 297.095703,156.560425 
z"/>
<path fill="#322830" opacity="1.000000" stroke="none" 
	d="
M309.269592,121.248108 
	C311.553406,119.434647 313.943115,119.145432 315.880310,122.515823 
	C313.838623,122.380142 311.715515,121.902626 309.269592,121.248108 
z"/>
<path fill="#322830" opacity="1.000000" stroke="none" 
	d="
M259.739105,74.299133 
	C260.106232,76.780914 260.282745,79.614876 260.194763,82.752159 
	C259.802979,80.254097 259.675720,77.452705 259.739105,74.299133 
z"/>
<path fill="#322830" opacity="1.000000" stroke="none" 
	d="
M262.539612,63.755257 
	C262.523132,65.678513 262.150696,67.684746 261.434875,69.830627 
	C260.218536,67.705925 259.037659,65.386734 262.539612,63.755257 
z"/>
<path fill="#322830" opacity="1.000000" stroke="none" 
	d="
M335.898071,133.453354 
	C336.782440,135.562469 337.604279,138.051620 338.167633,140.805420 
	C337.217926,138.657852 336.526733,136.245605 335.898071,133.453354 
z"/>
<path fill="#322830" opacity="1.000000" stroke="none" 
	d="
M279.592468,140.955658 
	C277.619720,141.659760 275.236664,142.322937 272.440002,142.952728 
	C274.411652,142.251160 276.796906,141.582962 279.592468,140.955658 
z"/>
<path fill="#322830" opacity="1.000000" stroke="none" 
	d="
M324.713562,99.723648 
	C322.795074,99.832848 320.518921,99.759827 318.119659,99.339478 
	C320.116333,99.175232 322.236115,99.358330 324.713562,99.723648 
z"/>
<path fill="#322830" opacity="1.000000" stroke="none" 
	d="
M339.386230,43.559021 
	C337.431946,43.161827 335.342224,42.400063 333.160217,41.293648 
	C335.128876,41.697479 337.189789,42.445961 339.386230,43.559021 
z"/>
<path fill="#322830" opacity="1.000000" stroke="none" 
	d="
M331.389282,173.940979 
	C331.712616,171.183792 333.257446,170.389740 336.032654,172.007614 
	C334.778168,172.849213 333.263214,173.423203 331.389282,173.940979 
z"/>
<path fill="#322830" opacity="1.000000" stroke="none" 
	d="
M271.543396,142.852875 
	C269.885284,143.640427 267.849274,144.314041 265.394592,144.960968 
	C267.039124,144.202499 269.102295,143.470718 271.543396,142.852875 
z"/>
<path fill="#322830" opacity="1.000000" stroke="none" 
	d="
M318.284088,123.198181 
	C320.042480,121.671013 321.910919,121.108833 322.947021,124.530579 
	C321.509369,124.381348 320.044128,123.881989 318.284088,123.198181 
z"/>
<path fill="#322830" opacity="1.000000" stroke="none" 
	d="
M286.117920,144.636169 
	C284.762451,143.882935 283.427704,142.727295 282.027100,141.233551 
	C284.459839,140.624115 286.266876,141.218094 286.117920,144.636169 
z"/>
<path fill="#322830" opacity="1.000000" stroke="none" 
	d="
M258.622742,146.043335 
	C258.993713,147.404251 258.987457,148.806000 258.949677,150.627167 
	C255.442337,149.833221 256.671234,147.982101 258.622742,146.043335 
z"/>
<path fill="#322830" opacity="1.000000" stroke="none" 
	d="
M270.546326,50.030640 
	C270.079620,51.490028 269.334564,53.135067 268.274719,54.854111 
	C268.729309,53.357506 269.498657,51.786900 270.546326,50.030640 
z"/>
<path fill="#322830" opacity="1.000000" stroke="none" 
	d="
M309.254913,96.571388 
	C307.758057,96.485558 306.033264,96.079163 304.187561,95.312531 
	C305.720093,95.385132 307.373535,95.817978 309.254913,96.571388 
z"/>
<path fill="#322830" opacity="1.000000" stroke="none" 
	d="
M359.115417,122.575104 
	C358.066650,121.524673 357.087402,120.122108 356.098175,118.366302 
	C357.120453,119.416367 358.152710,120.819672 359.115417,122.575104 
z"/>
<path fill="#322830" opacity="1.000000" stroke="none" 
	d="
M288.911682,82.638023 
	C288.054993,81.879860 287.043182,80.805595 286.057129,79.350929 
	C286.974060,80.087654 287.865326,81.204788 288.911682,82.638023 
z"/>
<path fill="#322830" opacity="1.000000" stroke="none" 
	d="
M329.915100,68.367592 
	C330.623810,69.083473 331.325165,70.199387 332.021912,71.689255 
	C331.314117,70.964676 330.610931,69.866150 329.915100,68.367592 
z"/>
<path fill="#322830" opacity="1.000000" stroke="none" 
	d="
M314.988647,97.477715 
	C313.919647,97.724014 312.575317,97.713158 311.125061,97.381989 
	C312.250549,97.114639 313.481964,97.167595 314.988647,97.477715 
z"/>
<path fill="#322830" opacity="1.000000" stroke="none" 
	d="
M315.245728,52.255890 
	C316.210907,52.200260 317.489960,52.306805 318.852966,52.737354 
	C317.811157,52.846928 316.685364,52.632496 315.245728,52.255890 
z"/>
<path fill="#322830" opacity="1.000000" stroke="none" 
	d="
M303.952881,160.560196 
	C302.753296,160.483963 301.506622,160.051834 300.163513,159.281921 
	C301.346649,159.364182 302.626251,159.784241 303.952881,160.560196 
z"/>
<path fill="#322830" opacity="1.000000" stroke="none" 
	d="
M356.069519,117.576042 
	C355.018036,116.829430 354.015991,115.743225 353.001282,114.311539 
	C354.032043,115.056190 355.075500,116.146317 356.069519,117.576042 
z"/>
<path fill="#322830" opacity="1.000000" stroke="none" 
	d="
M291.067017,86.642731 
	C290.422699,85.877647 289.721741,84.782013 289.033447,83.311844 
	C289.700897,84.062271 290.355621,85.187233 291.067017,86.642731 
z"/>
<path fill="#322830" opacity="1.000000" stroke="none" 
	d="
M286.139038,78.590454 
	C285.614929,78.017616 285.190033,77.111450 285.010223,75.978737 
	C285.582947,76.587173 285.910553,77.422150 286.139038,78.590454 
z"/>
<path fill="#322830" opacity="1.000000" stroke="none" 
	d="
M327.726257,158.787781 
	C327.177948,159.506989 326.228363,160.214844 324.874420,160.905823 
	C325.421692,160.184784 326.373352,159.480621 327.726257,158.787781 
z"/>
<path fill="#322830" opacity="1.000000" stroke="none" 
	d="
M325.075623,125.330124 
	C325.848999,125.214279 326.852417,125.356400 327.919189,125.790710 
	C327.090271,125.917969 326.197998,125.753036 325.075623,125.330124 
z"/>
<path fill="#322830" opacity="1.000000" stroke="none" 
	d="
M299.936340,158.608109 
	C299.088013,158.487244 298.154205,158.052185 297.146484,157.290054 
	C297.998657,157.406616 298.924744,157.850266 299.936340,158.608109 
z"/>
<path fill="#322830" opacity="1.000000" stroke="none" 
	d="
M343.942261,45.576324 
	C343.045471,45.460495 342.097687,45.009468 341.051849,44.225662 
	C341.932922,44.342297 342.912079,44.791710 343.942261,45.576324 
z"/>
<path fill="#322830" opacity="1.000000" stroke="none" 
	d="
M352.227081,113.586662 
	C351.629608,113.462982 350.920380,113.023705 350.135345,112.257278 
	C350.744812,112.377106 351.430054,112.824081 352.227081,113.586662 
z"/>
<path fill="#322830" opacity="1.000000" stroke="none" 
	d="
M346.121094,47.568264 
	C345.415161,47.473480 344.799744,47.027119 344.134033,46.276237 
	C344.793030,46.386707 345.502319,46.801701 346.121094,47.568264 
z"/>
<path fill="#322830" opacity="1.000000" stroke="none" 
	d="
M278.645569,43.888313 
	C278.179901,44.488495 277.427307,45.217190 276.316986,45.940598 
	C276.759064,45.295815 277.558868,44.656319 278.645569,43.888313 
z"/>
<path fill="#322830" opacity="1.000000" stroke="none" 
	d="
M288.131653,147.716278 
	C287.497528,147.467850 286.831329,146.854309 286.133270,145.869019 
	C286.767456,146.115265 287.433502,146.733231 288.131653,147.716278 
z"/>
<path fill="#322830" opacity="1.000000" stroke="none" 
	d="
M348.090363,49.577095 
	C347.422058,49.475677 346.804962,49.027164 346.133972,48.275566 
	C346.767242,48.391647 347.454376,48.810822 348.090363,49.577095 
z"/>
<path fill="#322830" opacity="1.000000" stroke="none" 
	d="
M350.013184,51.655888 
	C349.444122,51.516224 348.818207,51.047070 348.134216,50.271046 
	C348.702881,50.418251 349.329620,50.872322 350.013184,51.655888 
z"/>
<path fill="#6D676E" opacity="1.000000" stroke="none" 
	d="
M187.153076,24.680342 
	C186.983444,24.191843 186.699890,23.355537 186.646103,22.333126 
	C186.930283,22.875525 186.984711,23.604031 187.153076,24.680342 
z"/>
<path fill="#382D32" opacity="1.000000" stroke="none" 
	d="
M204.685791,175.999924 
	C204.023270,175.859543 203.696167,175.507309 203.373413,174.907318 
	C204.095261,174.604568 204.812775,174.549622 205.530289,174.494675 
	C205.360596,174.925812 205.190903,175.356949 204.685791,175.999924 
z"/>
<path fill="#322830" opacity="1.000000" stroke="none" 
	d="
M273.762695,47.909584 
	C273.512451,48.272617 272.951080,48.700439 272.142181,49.040176 
	C272.413635,48.626186 272.932556,48.300285 273.762695,47.909584 
z"/>
<path fill="#322830" opacity="1.000000" stroke="none" 
	d="
M289.958557,149.751495 
	C289.520721,149.741364 288.937836,149.426270 288.207855,148.798019 
	C288.645020,148.805420 289.229248,149.125992 289.958557,149.751495 
z"/>
<path fill="#382D32" opacity="1.000000" stroke="none" 
	d="
M194.588745,205.319168 
	C195.059448,205.799469 195.343018,206.247894 195.815033,207.043579 
	C195.448807,207.198303 194.894119,207.005753 194.191406,206.316910 
	C193.991653,205.529541 194.111069,205.351776 194.588745,205.319168 
z"/>
<path fill="#382D32" opacity="1.000000" stroke="none" 
	d="
M193.950073,167.886017 
	C193.721222,168.201889 193.541931,168.229004 193.157257,168.077560 
	C193.074112,167.486847 193.196350,167.074692 193.318604,166.662537 
	C193.545593,166.974106 193.772598,167.285675 193.950073,167.886017 
z"/>
<path fill="#382D32" opacity="1.000000" stroke="none" 
	d="
M195.985779,168.780212 
	C196.121658,168.986145 195.689911,169.148010 195.689911,169.148010 
	C195.689911,169.148010 195.243835,169.031174 195.088928,168.859985 
	C195.210922,168.422318 195.516220,168.384155 195.985779,168.780212 
z"/>
<path fill="#322830" opacity="1.000000" stroke="none" 
	d="
M275.719727,46.086243 
	C275.747955,46.241844 275.528198,46.519642 275.100464,46.970184 
	C275.085571,46.831436 275.278656,46.519939 275.719727,46.086243 
z"/>
<path fill="#382D32" opacity="1.000000" stroke="none" 
	d="
M206.934113,195.474060 
	C206.794525,195.652878 206.432617,195.429337 205.868195,194.951721 
	C205.665680,194.697662 205.807968,194.424835 205.959808,194.400024 
	C206.311691,194.607361 206.511734,194.839523 206.934113,195.474060 
z"/>
<path fill="#322830" opacity="1.000000" stroke="none" 
	d="
M264.715698,144.933014 
	C264.957214,144.939285 264.636810,145.261719 264.636810,145.261719 
	C264.636810,145.261719 264.209137,145.222458 264.102386,145.108215 
	C263.995636,144.993958 264.474182,144.926743 264.715698,144.933014 
z"/>
<path fill="#969195" opacity="1.000000" stroke="none" 
	d="
M662.665649,46.950424 
	C662.858521,47.374619 662.773010,47.827477 662.306763,48.104057 
	C662.079773,47.611553 662.233521,47.295319 662.665649,46.950424 
z"/>
<path fill="#382D32" opacity="1.000000" stroke="none" 
	d="
M196.578094,168.280579 
	C196.478195,168.472488 196.471985,168.381287 196.480591,168.421204 
	C196.552139,168.336990 196.615082,168.212830 196.578094,168.280579 
z"/>
<path fill="#382D32" opacity="1.000000" stroke="none" 
	d="
M201.840759,172.328308 
	C201.631104,172.379608 201.657013,172.334763 201.647278,172.366394 
	C201.637543,172.398010 201.748703,171.985168 201.748703,171.985168 
	C201.748703,171.985168 202.050415,172.276993 201.840759,172.328308 
z"/>
<path fill="#969195" opacity="1.000000" stroke="none" 
	d="
M663.769653,45.991909 
	C663.900452,46.403904 663.747559,46.835094 663.260071,47.103184 
	C663.112305,46.630421 663.299133,46.320759 663.769653,45.991909 
z"/>
<path fill="#50474B" opacity="1.000000" stroke="none" 
	d="
M58.766060,207.686188 
	C58.633705,207.863144 58.498348,207.845123 58.430984,207.852478 
	C50.606987,204.569397 43.944958,200.294952 43.125473,190.444672 
	C43.468266,190.015900 43.741070,189.973618 44.600189,190.136353 
	C47.450481,197.598633 52.374470,202.325806 59.284725,205.163757 
	C59.242268,205.485825 59.199810,205.807877 59.112396,206.615387 
	C59.067444,207.100845 58.898418,207.509216 58.766060,207.686188 
z"/>
<path fill="#EBEAEA" opacity="1.000000" stroke="none" 
	d="
M42.014549,77.997490 
	C42.087349,101.028122 42.160149,124.058754 41.903332,147.532547 
	C41.573715,147.975708 41.165466,147.981934 41.165466,147.981934 
	C41.114571,124.968697 41.063675,101.955460 41.299294,78.480103 
	C41.585808,78.017990 42.014545,77.997490 42.014549,77.997490 
z"/>
<path fill="#D8D5D7" opacity="1.000000" stroke="none" 
	d="
M41.090839,148.446472 
	C41.165466,147.981934 41.573715,147.975708 41.777588,147.986298 
	C42.056412,161.022095 42.131359,174.047318 42.092995,187.528091 
	C41.653095,186.691147 41.050526,185.400238 41.043007,184.105896 
	C40.974899,172.374619 41.010780,160.642715 41.090839,148.446472 
z"/>
<path fill="#D8D5D7" opacity="1.000000" stroke="none" 
	d="
M42.087029,77.533859 
	C42.014545,77.997490 41.585808,78.017990 41.371193,78.017395 
	C41.108421,66.997269 41.060265,55.977726 41.069576,44.494682 
	C41.471378,45.510025 42.099857,46.986183 42.113873,48.468147 
	C42.204033,58.001465 42.159687,67.536057 42.087029,77.533859 
z"/>
<path fill="#453A3F" opacity="1.000000" stroke="none" 
	d="
M8.840683,38.345898 
	C9.250043,38.511616 9.569289,38.986309 9.912518,39.754402 
	C9.541189,39.583492 9.145880,39.119183 8.840683,38.345898 
z"/>
<path fill="#453A3F" opacity="1.000000" stroke="none" 
	d="
M10.092879,40.342457 
	C10.513009,40.279236 11.072944,40.495831 11.799029,40.974274 
	C11.387681,41.031502 10.810183,40.826885 10.092879,40.342457 
z"/>
<path fill="#E1CDB5" opacity="1.000000" stroke="none" 
	d="
M59.733780,205.227386 
	C52.374470,202.325806 47.450481,197.598633 45.010124,190.077820 
	C44.608479,184.840027 44.192406,179.865997 44.187515,174.891571 
	C44.139545,126.083229 44.018906,77.274063 44.277431,28.467031 
	C44.330593,18.430244 41.856277,10.140211 32.649334,3.671844 
	C34.723190,3.454869 35.913322,3.223242 37.103832,3.221293 
	C78.414841,3.153676 119.725952,3.070604 161.036835,3.130012 
	C164.299118,3.134703 167.559952,4.150861 171.235977,4.784308 
	C177.433350,8.257536 181.710770,12.912222 184.000092,19.688709 
	C184.278900,25.324488 184.535767,30.631016 184.540146,35.937756 
	C184.573898,76.734413 184.558640,117.531113 184.558609,158.327805 
	C184.558609,160.304977 184.558609,162.282135 184.558609,164.987717 
	C182.521790,164.987717 180.922073,164.985657 179.322342,164.988022 
	C145.853729,165.037521 112.385117,165.095322 78.916473,165.122528 
	C76.256943,165.124680 73.597710,164.834824 70.937531,164.819214 
	C60.552853,164.758331 52.562801,172.045135 51.924328,182.095688 
	C51.215271,193.257263 58.484257,202.403778 68.975220,203.538910 
	C70.589333,203.713562 72.208084,203.845337 73.825974,204.604279 
	C69.380592,206.912521 64.795776,206.330444 59.733780,205.227386 
M79.933334,156.075760 
	C104.030762,156.083755 128.128189,156.103455 152.225616,156.091064 
	C157.862228,156.088165 163.498795,155.976532 169.943115,155.893829 
	C170.814972,154.005707 172.857498,150.969803 172.340958,150.442978 
	C170.740433,148.810608 168.172058,147.232803 165.969650,147.219330 
	C133.823257,147.022690 101.675270,147.072876 69.527733,147.119049 
	C67.902283,147.121384 65.759148,147.085342 64.785126,148.027084 
	C63.596394,149.176407 62.827938,151.387009 62.962410,153.050964 
	C63.047501,154.103973 65.112312,154.997009 66.289207,155.961792 
	C66.394913,155.335648 66.500618,154.709518 66.788750,154.545410 
	C66.788750,154.545410 67.285652,154.508224 67.285652,154.508224 
	C67.285652,154.508224 67.398262,154.023956 66.582443,154.862076 
	C70.722801,155.225494 74.863152,155.588913 79.933334,156.075760 
M67.913498,99.241959 
	C72.227310,99.215294 76.541168,99.158867 80.854919,99.166801 
	C108.745575,99.218094 136.636429,99.343254 164.526489,99.242661 
	C167.047028,99.233559 169.562424,97.799126 172.490555,96.439545 
	C172.670807,91.128151 171.698227,90.149521 165.679962,90.144157 
	C133.717819,90.115662 101.755623,90.129005 69.793449,90.130714 
	C68.961502,90.130753 67.892929,89.839142 67.341774,90.241348 
	C65.656769,91.471016 63.281960,92.726669 62.810383,94.425926 
	C62.055920,97.144562 63.676289,99.223183 67.913498,99.241959 
M163.856659,118.181351 
	C165.351913,118.177376 167.135910,118.688370 168.275253,118.049583 
	C170.015381,117.073944 172.492889,115.290161 172.476181,113.875237 
	C172.457870,112.323357 170.150452,110.533730 168.476807,109.371407 
	C167.560608,108.735115 165.893372,109.143341 164.564804,109.143097 
	C133.295441,109.137375 102.026077,109.137352 70.756714,109.150299 
	C69.264793,109.150917 67.421700,108.759605 66.364197,109.472969 
	C64.817688,110.516205 62.878216,112.402115 62.889809,113.915199 
	C62.900654,115.330589 64.998779,117.254547 66.615540,117.979485 
	C68.109833,118.649490 70.183952,118.026337 72.933266,118.090569 
	C102.956352,118.049423 132.979446,118.008270 163.856659,118.181351 
M86.500168,42.730667 
	C112.281715,42.730373 138.063278,42.740059 163.844788,42.710133 
	C165.826035,42.707832 167.894653,42.736076 169.768661,42.205856 
	C173.037491,41.280994 174.175583,36.506748 171.468430,34.708183 
	C169.816864,33.610916 167.408463,33.277016 165.333130,33.255280 
	C153.192184,33.128082 141.049225,33.194298 128.906937,33.195240 
	C108.947029,33.196785 88.987000,33.163097 69.027351,33.235199 
	C65.772064,33.246952 62.402386,33.660980 62.591450,38.231812 
	C62.766079,42.453705 65.943367,42.662994 69.033699,42.704166 
	C74.521729,42.777287 80.011375,42.728352 86.500168,42.730667 
M110.775017,61.576408 
	C126.588654,61.576317 142.402344,61.595840 158.215897,61.561447 
	C161.873032,61.553493 165.596146,61.724197 169.153763,61.073662 
	C170.560745,60.816380 172.638611,58.466965 172.546005,57.207245 
	C172.426468,55.581005 170.655716,53.812660 169.169708,52.650845 
	C168.301849,51.972336 166.602203,52.277035 165.276718,52.276417 
	C133.466675,52.261581 101.656624,52.259106 69.846603,52.285271 
	C68.362221,52.286491 66.557335,52.106483 65.476997,52.848480 
	C64.198128,53.726830 62.814102,55.520390 62.823822,56.907810 
	C62.833649,58.310863 64.196785,60.325157 65.501694,60.943462 
	C67.184990,61.741066 69.399086,61.549557 71.385269,61.555531 
	C84.200996,61.594078 97.016914,61.570309 110.775017,61.576408 
M85.540520,80.206787 
	C111.510056,80.281967 137.479584,80.363922 163.449158,80.418968 
	C165.441757,80.423195 167.606689,80.681709 169.372711,79.998276 
	C170.763718,79.459953 172.561691,77.647774 172.556030,76.408821 
	C172.548782,74.825485 171.257416,72.706512 169.876724,71.824448 
	C168.517120,70.955849 166.354675,71.204247 164.544189,71.202110 
	C138.239258,71.171082 111.934280,71.178596 85.629311,71.181290 
	C79.635941,71.181908 73.641335,71.130371 67.649704,71.237480 
	C64.615067,71.291733 62.526367,72.627441 62.595673,76.067993 
	C62.661903,79.355637 64.783157,80.310516 67.586250,80.314095 
	C73.243286,80.321312 78.900436,80.247307 85.540520,80.206787 
M162.406677,137.215668 
	C164.732315,137.147858 167.186676,137.506821 169.337128,136.858185 
	C170.709503,136.444244 172.533585,134.536041 172.529770,133.302811 
	C172.524948,131.734283 171.172455,129.801987 169.836838,128.728302 
	C168.864716,127.946815 166.978989,128.170792 165.500397,128.169617 
	C133.561691,128.144165 101.622963,128.146454 69.684250,128.163132 
	C68.362679,128.163818 66.658989,127.881378 65.807266,128.567474 
	C64.454269,129.657364 62.830200,131.485413 62.885746,132.941498 
	C62.939354,134.346802 64.728027,136.200546 66.206360,136.894180 
	C67.726547,137.607437 69.793060,137.206543 71.620529,137.207199 
	C101.556923,137.217926 131.493317,137.215027 162.406677,137.215668 
z"/>
<path fill="#C39F87" opacity="1.000000" stroke="none" 
	d="
M65.568184,168.277740 
	C73.476875,166.453476 78.863899,168.701157 83.423119,175.823914 
	C79.242294,175.823914 75.370743,175.922424 71.506454,175.796951 
	C67.420494,175.664291 63.860317,176.620895 61.620232,180.286072 
	C59.501816,183.752182 61.215843,186.933899 65.267792,187.214478 
	C68.885666,187.465012 72.512291,187.589249 76.491295,187.786896 
	C75.987442,192.757339 73.322594,195.587692 69.152542,196.912384 
	C64.787163,198.299133 60.863297,198.151688 57.765518,193.689850 
	C51.606194,184.818344 54.888813,173.152054 65.568184,168.277740 
z"/>
<path fill="#B58C65" opacity="1.000000" stroke="none" 
	d="
M79.738808,184.356415 
	C79.181252,182.567703 78.686028,181.177780 78.191673,179.790283 
	C84.849236,177.667633 86.906418,178.969894 87.132996,185.563950 
	C87.206184,187.693817 87.059891,189.938828 86.457016,191.965485 
	C83.977570,200.300415 80.607567,201.945343 68.389099,200.514465 
	C76.370163,197.611237 79.813652,192.310486 79.738808,184.356415 
z"/>
<path fill="#5F4D4C" opacity="1.000000" stroke="none" 
	d="
M79.693130,205.002213 
	C79.927422,205.166702 79.910545,205.362656 79.927261,205.851761 
	C79.544167,206.233597 79.127502,206.322281 78.710831,206.410965 
	C78.954544,205.951874 79.198265,205.492783 79.693130,205.002213 
z"/>
<path fill="#5F4D4C" opacity="1.000000" stroke="none" 
	d="
M81.268799,167.365662 
	C81.364456,167.726028 81.166344,168.070221 80.970451,168.712341 
	C80.973450,168.456696 80.974228,167.903091 81.268799,167.365662 
z"/>
<path fill="#000000" opacity="1.000000" stroke="none" 
	d="
M194.002563,206.531067 
	C194.192078,206.754959 194.449646,206.940140 194.633118,207.596130 
	C194.512390,207.840942 194.465790,207.614929 194.324310,207.049774 
	C194.229431,206.710632 194.070648,206.492325 194.002563,206.531067 
z"/>
<path fill="#C5A189" opacity="1.000000" stroke="none" 
	d="
M10.623313,36.991219 
	C2.068726,27.411421 0.905572,19.272446 6.844280,10.978434 
	C8.429314,8.764771 10.879368,7.170484 13.160814,5.086561 
	C24.202900,1.582673 32.363487,4.007175 38.051949,13.034702 
	C32.289276,13.034702 27.068317,12.661315 21.935728,13.173490 
	C18.812159,13.485187 15.471660,14.653744 12.915647,16.427464 
	C11.498434,17.410925 10.536751,20.771116 11.127715,22.436035 
	C11.699083,24.045744 14.436168,25.633619 16.380163,25.857534 
	C20.756433,26.361610 25.230610,26.015692 29.737774,26.015692 
	C28.331278,35.188370 22.583702,38.429504 10.623313,36.991219 
z"/>
<path fill="#B38B64" opacity="1.000000" stroke="none" 
	d="
M41.837635,30.041380 
	C41.838535,41.633163 41.838352,41.695236 30.626617,41.661922 
	C26.862656,41.650742 23.099895,41.235050 18.612730,40.959858 
	C32.687317,34.775829 35.879467,28.145243 30.929207,16.611887 
	C39.592735,14.385504 41.574257,15.828024 41.821400,24.575466 
	C41.868286,26.235060 41.834396,27.896936 41.837635,30.041380 
z"/>
<path fill="#322830" opacity="1.000000" stroke="none" 
	d="
M299.544678,38.592308 
	C302.647430,38.116802 306.090576,37.805248 309.731201,37.864906 
	C306.580811,38.409496 303.232941,38.582882 299.544678,38.592308 
z"/>
<path fill="#000000" opacity="1.000000" stroke="none" 
	d="
M610.926270,145.210526 
	C609.358948,150.822311 608.499817,156.379349 603.983521,161.114059 
	C594.408569,171.152069 582.046814,168.345901 575.817017,156.392075 
	C574.251282,153.387619 573.797302,149.803711 572.729248,145.660065 
	C571.002563,132.517715 572.253479,120.368370 574.748779,108.291306 
	C577.280090,97.841667 585.466858,91.957603 595.761841,94.170212 
	C602.362122,95.588745 605.712646,101.407303 608.654785,106.976486 
	C609.857544,109.253143 610.246521,111.959686 610.899170,115.205338 
	C610.657654,117.631142 610.363525,119.327438 610.418274,121.012405 
	C610.563171,125.473976 610.953247,129.928268 611.065063,134.389999 
	C611.155273,137.993408 610.982422,141.603439 610.926270,145.210526 
z"/>
<path fill="#A9A5A8" opacity="1.000000" stroke="none" 
	d="
M574.421631,108.377747 
	C572.253479,120.368370 571.002563,132.517715 572.658264,145.233582 
	C571.935486,143.160675 570.469421,140.664276 570.551819,138.220032 
	C570.862854,128.991211 571.639404,119.776337 572.373779,110.566780 
	C572.432983,109.824898 573.497192,109.163162 574.421631,108.377747 
z"/>
<path fill="#878186" opacity="1.000000" stroke="none" 
	d="
M611.265015,144.991409 
	C610.982422,141.603439 611.155273,137.993408 611.065063,134.389999 
	C610.953247,129.928268 610.563171,125.473976 610.418274,121.012405 
	C610.363525,119.327438 610.657654,117.631142 610.982544,115.600555 
	C611.724426,117.108559 612.786682,118.968971 612.740173,120.801224 
	C612.537048,128.796051 612.011963,136.782684 611.265015,144.991409 
z"/>
<path fill="#382D32" opacity="1.000000" stroke="none" 
	d="
M198.497452,203.091492 
	C198.872055,203.081467 199.009918,203.406357 198.997406,203.865662 
	C198.651581,203.808838 198.456146,203.617615 198.497452,203.091492 
z"/>
<path fill="#382D32" opacity="1.000000" stroke="none" 
	d="
M198.632477,203.595245 
	C198.597198,203.919769 198.196960,203.973816 197.619507,203.866272 
	C197.717346,203.578064 197.992432,203.451431 198.632477,203.595245 
z"/>
<path fill="#5B4B47" opacity="1.000000" stroke="none" 
	d="
M86.000259,42.730576 
	C80.011375,42.728352 74.521729,42.777287 69.033699,42.704166 
	C65.943367,42.662994 62.766079,42.453705 62.591450,38.231812 
	C62.402386,33.660980 65.772064,33.246952 69.027351,33.235199 
	C88.987000,33.163097 108.947029,33.196785 128.906937,33.195240 
	C141.049225,33.194298 153.192184,33.128082 165.333130,33.255280 
	C167.408463,33.277016 169.816864,33.610916 171.468430,34.708183 
	C174.175583,36.506748 173.037491,41.280994 169.768661,42.205856 
	C167.894653,42.736076 165.826035,42.707832 163.844788,42.710133 
	C138.063278,42.740059 112.281715,42.730373 86.000259,42.730576 
M122.500000,35.931446 
	C110.849586,35.931477 99.199173,35.927288 87.548759,35.933220 
	C81.224403,35.936440 74.896347,35.850685 68.579262,36.071400 
	C67.493301,36.109341 66.454063,37.484776 65.393242,38.242374 
	C66.446007,38.819572 67.450737,39.533714 68.568443,39.925747 
	C69.311386,40.186325 70.215759,39.992146 71.047874,39.992161 
	C102.171104,39.992706 133.294327,39.993122 164.417557,39.987995 
	C165.581726,39.987804 166.810638,40.149433 167.887878,39.828201 
	C168.638657,39.604321 169.181442,38.682934 169.817139,38.073120 
	C169.187683,37.417931 168.660751,36.404831 167.905579,36.188465 
	C166.662659,35.832355 165.272003,35.943207 163.943558,35.941887 
	C150.462372,35.928497 136.981186,35.932293 122.500000,35.931446 
z"/>
<path fill="#524240" opacity="1.000000" stroke="none" 
	d="
M110.303894,61.571697 
	C97.016914,61.570309 84.200996,61.594078 71.385269,61.555531 
	C69.399086,61.549557 67.184990,61.741066 65.501694,60.943462 
	C64.196785,60.325157 62.833649,58.310863 62.823822,56.907810 
	C62.814102,55.520390 64.198128,53.726830 65.476997,52.848480 
	C66.557335,52.106483 68.362221,52.286491 69.846603,52.285271 
	C101.656624,52.259106 133.466675,52.261581 165.276718,52.276417 
	C166.602203,52.277035 168.301849,51.972336 169.169708,52.650845 
	C170.655716,53.812660 172.426468,55.581005 172.546005,57.207245 
	C172.638611,58.466965 170.560745,60.816380 169.153763,61.073662 
	C165.596146,61.724197 161.873032,61.553493 158.215897,61.561447 
	C142.402344,61.595840 126.588654,61.576317 110.303894,61.571697 
M153.497543,58.994312 
	C157.659363,58.992916 161.830612,59.148575 165.977631,58.900135 
	C167.326523,58.819324 168.612167,57.682808 169.926743,57.029152 
	C168.676270,56.314762 167.428009,54.980911 166.175018,54.976479 
	C133.879669,54.862194 101.583740,54.863369 69.288322,54.969090 
	C67.962120,54.973431 66.639870,56.185429 65.315773,56.834782 
	C66.575607,57.551682 67.762756,58.520618 69.116737,58.911030 
	C70.347061,59.265797 71.758812,58.993935 73.090584,58.993942 
	C99.559807,58.994118 126.029022,58.993660 153.497543,58.994312 
z"/>
<path fill="#4E3F3E" opacity="1.000000" stroke="none" 
	d="
M85.049026,80.206802 
	C78.900436,80.247307 73.243286,80.321312 67.586250,80.314095 
	C64.783157,80.310516 62.661903,79.355637 62.595673,76.067993 
	C62.526367,72.627441 64.615067,71.291733 67.649704,71.237480 
	C73.641335,71.130371 79.635941,71.181908 85.629311,71.181290 
	C111.934280,71.178596 138.239258,71.171082 164.544189,71.202110 
	C166.354675,71.204247 168.517120,70.955849 169.876724,71.824448 
	C171.257416,72.706512 172.548782,74.825485 172.556030,76.408821 
	C172.561691,77.647774 170.763718,79.459953 169.372711,79.998276 
	C167.606689,80.681709 165.441757,80.423195 163.449158,80.418968 
	C137.479584,80.363922 111.510056,80.281967 85.049026,80.206802 
M106.500008,73.849480 
	C94.019844,73.852531 81.538872,73.793457 69.060730,73.953758 
	C67.798737,73.969971 66.553757,75.310074 65.300888,76.035805 
	C66.479454,76.676300 67.621208,77.405220 68.852951,77.917969 
	C69.422539,78.155075 70.167686,77.976166 70.833244,77.976196 
	C101.950455,77.977646 133.067657,77.980644 164.184875,77.969498 
	C165.510849,77.969017 166.905228,78.059219 168.136795,77.680901 
	C168.863434,77.457687 169.809219,76.372543 169.778717,75.715813 
	C169.749863,75.095123 168.652939,74.197189 167.883484,74.011742 
	C166.619629,73.707138 165.240753,73.855431 163.910355,73.854996 
	C145.106903,73.848877 126.303459,73.849892 106.500008,73.849480 
z"/>
<path fill="#B08765" opacity="1.000000" stroke="none" 
	d="
M67.398262,154.023956 
	C67.398262,154.023956 67.285652,154.508224 67.285652,154.508224 
	C67.285652,154.508224 66.788750,154.545410 66.387604,154.076599 
	C63.892216,148.059464 68.449905,149.463821 70.744942,149.455170 
	C101.966232,149.337585 133.188110,149.376007 164.409836,149.384262 
	C165.404312,149.384521 166.419586,149.361862 167.389313,149.542450 
	C170.354706,150.094711 171.085663,151.542999 168.534912,153.974625 
	C138.380554,154.037186 108.695244,154.099670 78.542999,154.100754 
	C74.516785,154.034210 70.957527,154.029083 67.398262,154.023956 
z"/>
<path fill="#46393B" opacity="1.000000" stroke="none" 
	d="
M161.918198,137.215424 
	C131.493317,137.215027 101.556923,137.217926 71.620529,137.207199 
	C69.793060,137.206543 67.726547,137.607437 66.206360,136.894180 
	C64.728027,136.200546 62.939354,134.346802 62.885746,132.941498 
	C62.830200,131.485413 64.454269,129.657364 65.807266,128.567474 
	C66.658989,127.881378 68.362679,128.163818 69.684250,128.163132 
	C101.622963,128.146454 133.561691,128.144165 165.500397,128.169617 
	C166.978989,128.170792 168.864716,127.946815 169.836838,128.728302 
	C171.172455,129.801987 172.524948,131.734283 172.529770,133.302811 
	C172.533585,134.536041 170.709503,136.444244 169.337128,136.858185 
	C167.186676,137.506821 164.732315,137.147858 161.918198,137.215424 
M86.500671,130.309784 
	C80.512283,130.324936 74.517357,130.199020 68.541130,130.476273 
	C67.369995,130.530624 66.271263,132.145706 65.139137,133.040939 
	C66.303085,133.694016 67.416740,134.478546 68.650032,134.950363 
	C69.377434,135.228653 70.294403,135.016296 71.126122,135.016342 
	C102.067490,135.017563 133.009079,135.062668 163.949753,134.917023 
	C166.005646,134.907364 168.054703,133.446671 170.106949,132.660889 
	C168.023209,131.877167 165.943588,130.424362 163.855103,130.411530 
	C138.404297,130.255005 112.952187,130.310120 86.500671,130.309784 
z"/>
<path fill="#4C4042" opacity="1.000000" stroke="none" 
	d="
M72.002708,117.972710 
	C70.183952,118.026337 68.109833,118.649490 66.615540,117.979485 
	C64.998779,117.254547 62.900654,115.330589 62.889809,113.915199 
	C62.878216,112.402115 64.817688,110.516205 66.364197,109.472969 
	C67.421700,108.759605 69.264793,109.150917 70.756714,109.150299 
	C102.026077,109.137352 133.295441,109.137375 164.564804,109.143097 
	C165.893372,109.143341 167.560608,108.735115 168.476807,109.371407 
	C170.150452,110.533730 172.457870,112.323357 172.476181,113.875237 
	C172.492889,115.290161 170.015381,117.073944 168.275253,118.049583 
	C167.135910,118.688370 165.351913,118.177376 163.548492,117.848007 
	C163.489105,117.068092 163.737869,116.621529 164.332031,116.119560 
	C166.472595,115.378319 168.267746,114.692474 170.062897,114.006622 
	C168.358597,113.161865 166.702606,112.187370 164.929520,111.527374 
	C164.050446,111.200150 162.956039,111.439682 161.959106,111.442459 
	C132.042542,111.525726 102.125648,111.565834 72.210060,111.783600 
	C69.823753,111.800980 66.193779,109.586502 65.445862,114.001808 
	C65.387779,114.344696 69.722099,115.431618 72.007004,116.472672 
	C72.000290,117.172646 72.001503,117.572678 72.002708,117.972710 
z"/>
<path fill="#483B3E" opacity="1.000000" stroke="none" 
	d="
M67.000458,99.007591 
	C63.676289,99.223183 62.055920,97.144562 62.810383,94.425926 
	C63.281960,92.726669 65.656769,91.471016 67.341774,90.241348 
	C67.892929,89.839142 68.961502,90.130753 69.793449,90.130714 
	C101.755623,90.129005 133.717819,90.115662 165.679962,90.144157 
	C171.698227,90.149521 172.670807,91.128151 171.882172,96.697884 
	C170.736572,96.904892 170.199371,96.853554 169.799591,96.399284 
	C170.473740,91.485970 166.982376,92.785477 164.890030,92.779785 
	C133.299774,92.693764 101.709206,92.719711 70.118706,92.720581 
	C69.453705,92.720604 68.787575,92.712204 68.123909,92.745941 
	C65.006485,92.904449 64.262352,94.276665 66.124878,97.176788 
	C66.489243,97.966263 66.744850,98.486923 67.000458,99.007591 
z"/>
<path fill="#473B3D" opacity="1.000000" stroke="none" 
	d="
M169.003967,153.974548 
	C171.085663,151.542999 170.354706,150.094711 167.389313,149.542450 
	C166.419586,149.361862 165.404312,149.384521 164.409836,149.384262 
	C133.188110,149.376007 101.966232,149.337585 70.744942,149.455170 
	C68.449905,149.463821 63.892216,148.059464 66.296387,153.845581 
	C66.500618,154.709518 66.394913,155.335648 66.289207,155.961792 
	C65.112312,154.997009 63.047501,154.103973 62.962410,153.050964 
	C62.827938,151.387009 63.596394,149.176407 64.785126,148.027084 
	C65.759148,147.085342 67.902283,147.121384 69.527733,147.119049 
	C101.675270,147.072876 133.823257,147.022690 165.969650,147.219330 
	C168.172058,147.232803 170.740433,148.810608 172.340958,150.442978 
	C172.857498,150.969803 170.814972,154.005707 169.511276,155.418884 
	C169.054276,154.620804 169.029129,154.297684 169.003967,153.974548 
z"/>
<path fill="#403336" opacity="1.000000" stroke="none" 
	d="
M67.456978,99.124771 
	C66.744850,98.486923 66.489243,97.966263 66.591995,97.203796 
	C76.590034,96.976212 86.229774,97.018929 95.869370,96.999054 
	C120.467003,96.948334 145.064575,96.869690 169.662170,96.802216 
	C170.199371,96.853554 170.736572,96.904892 171.677002,96.991417 
	C169.562424,97.799126 167.047028,99.233559 164.526489,99.242661 
	C136.636429,99.343254 108.745575,99.218094 80.854919,99.166801 
	C76.541168,99.158867 72.227310,99.215294 67.456978,99.124771 
z"/>
<path fill="#423437" opacity="1.000000" stroke="none" 
	d="
M168.534912,153.974625 
	C169.029129,154.297684 169.054276,154.620804 169.107407,155.429443 
	C163.498795,155.976532 157.862228,156.088165 152.225616,156.091064 
	C128.128189,156.103455 104.030762,156.083755 79.466087,155.715607 
	C79.002541,154.957703 79.006241,154.559921 79.009941,154.162155 
	C108.695244,154.099670 138.380554,154.037186 168.534912,153.974625 
z"/>
<path fill="#433739" opacity="1.000000" stroke="none" 
	d="
M163.986633,116.174957 
	C163.737869,116.621529 163.489105,117.068092 163.121429,117.740891 
	C132.979446,118.008270 102.956352,118.049423 72.467987,118.031639 
	C72.001503,117.572678 72.000290,117.172646 72.461487,116.428520 
	C78.186035,116.404266 83.451599,117.037994 88.709618,116.980568 
	C100.785011,116.848724 112.855507,116.198349 124.930397,116.117348 
	C132.019440,116.069786 139.111664,116.928185 146.205109,116.974571 
	C152.130280,117.013313 158.059296,116.463905 163.986633,116.174957 
z"/>
<path fill="#473B3D" opacity="1.000000" stroke="none" 
	d="
M78.542999,154.100754 
	C79.006241,154.559921 79.002541,154.957703 79.001175,155.653900 
	C74.863152,155.588913 70.722801,155.225494 66.990356,154.443024 
	C70.957527,154.029083 74.516785,154.034210 78.542999,154.100754 
z"/>
<path fill="#BF936C" opacity="1.000000" stroke="none" 
	d="
M123.000000,35.931358 
	C136.981186,35.932293 150.462372,35.928497 163.943558,35.941887 
	C165.272003,35.943207 166.662659,35.832355 167.905579,36.188465 
	C168.660751,36.404831 169.187683,37.417931 169.817139,38.073124 
	C169.181442,38.682934 168.638657,39.604321 167.887878,39.828201 
	C166.810638,40.149433 165.581726,39.987804 164.417557,39.987995 
	C133.294327,39.993122 102.171104,39.992706 71.047874,39.992161 
	C70.215759,39.992146 69.311386,40.186325 68.568443,39.925747 
	C67.450737,39.533714 66.446007,38.819572 65.393242,38.242378 
	C66.454063,37.484776 67.493301,36.109341 68.579262,36.071400 
	C74.896347,35.850685 81.224403,35.936440 87.548759,35.933220 
	C99.199173,35.927288 110.849586,35.931477 123.000000,35.931358 
z"/>
<path fill="#BF936B" opacity="1.000000" stroke="none" 
	d="
M152.997894,58.993820 
	C126.029022,58.993660 99.559807,58.994118 73.090584,58.993942 
	C71.758812,58.993935 70.347061,59.265797 69.116737,58.911030 
	C67.762756,58.520618 66.575607,57.551682 65.315773,56.834782 
	C66.639870,56.185429 67.962120,54.973431 69.288322,54.969090 
	C101.583740,54.863369 133.879669,54.862194 166.175018,54.976479 
	C167.428009,54.980911 168.676270,56.314762 169.926743,57.029152 
	C168.612167,57.682808 167.326523,58.819324 165.977631,58.900135 
	C161.830612,59.148575 157.659363,58.992916 152.997894,58.993820 
z"/>
<path fill="#BE926B" opacity="1.000000" stroke="none" 
	d="
M107.000015,73.849335 
	C126.303459,73.849892 145.106903,73.848877 163.910355,73.854996 
	C165.240753,73.855431 166.619629,73.707138 167.883484,74.011742 
	C168.652939,74.197189 169.749863,75.095123 169.778717,75.715813 
	C169.809219,76.372543 168.863434,77.457687 168.136795,77.680901 
	C166.905228,78.059219 165.510849,77.969017 164.184875,77.969498 
	C133.067657,77.980644 101.950455,77.977646 70.833244,77.976196 
	C70.167686,77.976166 69.422539,78.155075 68.852951,77.917969 
	C67.621208,77.405220 66.479454,76.676300 65.300888,76.035797 
	C66.553757,75.310074 67.798737,73.969971 69.060730,73.953758 
	C81.538872,73.793457 94.019844,73.852531 107.000015,73.849335 
z"/>
<path fill="#B28966" opacity="1.000000" stroke="none" 
	d="
M87.000542,130.310059 
	C112.952187,130.310120 138.404297,130.255005 163.855103,130.411530 
	C165.943588,130.424362 168.023209,131.877167 170.106949,132.660889 
	C168.054703,133.446671 166.005646,134.907364 163.949753,134.917023 
	C133.009079,135.062668 102.067490,135.017563 71.126122,135.016342 
	C70.294403,135.016296 69.377434,135.228653 68.650032,134.950363 
	C67.416740,134.478546 66.303085,133.694016 65.139137,133.040939 
	C66.271263,132.145706 67.369995,130.530624 68.541130,130.476273 
	C74.517357,130.199020 80.512283,130.324936 87.000542,130.310059 
z"/>
<path fill="#B58C67" opacity="1.000000" stroke="none" 
	d="
M164.332031,116.119553 
	C158.059296,116.463905 152.130280,117.013313 146.205109,116.974571 
	C139.111664,116.928185 132.019440,116.069786 124.930397,116.117348 
	C112.855507,116.198349 100.785011,116.848724 88.709618,116.980568 
	C83.451599,117.037994 78.186035,116.404266 72.469406,116.128578 
	C69.722099,115.431618 65.387779,114.344696 65.445862,114.001808 
	C66.193779,109.586502 69.823753,111.800980 72.210060,111.783600 
	C102.125648,111.565834 132.042542,111.525726 161.959106,111.442459 
	C162.956039,111.439682 164.050446,111.200150 164.929520,111.527374 
	C166.702606,112.187370 168.358597,113.161865 170.062897,114.006622 
	C168.267746,114.692474 166.472595,115.378319 164.332031,116.119553 
z"/>
<path fill="#B28966" opacity="1.000000" stroke="none" 
	d="
M169.799591,96.399292 
	C145.064575,96.869690 120.467003,96.948334 95.869370,96.999054 
	C86.229774,97.018929 76.590034,96.976212 66.483246,96.934990 
	C64.262352,94.276665 65.006485,92.904449 68.123909,92.745941 
	C68.787575,92.712204 69.453705,92.720604 70.118706,92.720581 
	C101.709206,92.719711 133.299774,92.693764 164.890030,92.779785 
	C166.982376,92.785477 170.473740,91.485970 169.799591,96.399292 
z"/>
</svg>