<svg enable-background="new 0 0 850.4 283.5" version="1.1" viewBox="0 0 850.4 283.5" xml:space="preserve" xmlns="http://www.w3.org/2000/svg">
<style type="text/css">
	.st0{fill:#FFEEDA;}
	.st1{fill:#190602;}
	.st2{fill:#EBC28E;}
    .st3{fill:currentColor}
</style>
<switch>
	<g>
			<path class="st0" d="M247.6,177.6l0-118.2c-0.2-9.9-8-17.9-17.9-17.9l-123.4,0c-26.6,0.4-48.1,22.2-48.1,48.9
				c0,9,2.4,16.7,6.1,23.5c3.1,5.6,8,10.9,12.9,14.9c1.3,1.1,0.7,0.7,4.9,3.2c5.8,3.5,12.4,5.3,12.4,5.3l-0.1,70.7
				c0.1,3.3,0.5,6.6,1.3,9.5c2.8,9.9,9.6,17.6,19.1,21.3c3.9,1.5,8.4,2.6,13.1,2.6l98.6,0.4c19.7,0,35.6-16,35.6-35.6
				C262.1,194.5,256.4,184.1,247.6,177.6z"/>
			<path class="st3" d="M337.3,96.9c-13.7,0-24.2,7.8-24.2,19.4c0,11.2,8.9,15.1,20,17.2l14,2.3c18.5,3.1,31.4,11.6,31.4,31.9
				c0,21.2-17.4,33.5-39.5,33.5c-20,0-38.8-11.8-41.5-34.8c-0.2-1.9,1.3-3.6,3.2-3.6h8.4c1.6,0,3,1.2,3.2,2.8
				c2,16.3,14.6,22.8,26.9,22.8c13.5,0,24.2-6.7,24.2-20.2c0-12-8.6-16.3-20-18.4l-13.8-2.4c-19.4-3.3-31.6-12.5-31.6-30.3
				c0-20.5,17.9-33,39.4-33c17.2,0,36.1,9.7,39.7,32.5c0.3,2-1.2,3.7-3.2,3.7l-8.7,0c-1.6,0-2.9-1.1-3.2-2.7
				C359.5,102.4,348.4,96.9,337.3,96.9z"/>
			<path class="st3" d="M434.1,109.5c20.7,0,35.4,11.1,40.6,29.1c0.6,2-1,4.1-3.1,4.1h-9.8c-1.4,0-2.6-0.9-3-2.2
				c-3.6-10.3-12-16.1-24.7-16.1c-17.3,0-27,14.1-27,31c0,16.9,9.7,31,27,31c12.7,0,21.1-5.9,24.7-16.1c0.5-1.3,1.7-2.2,3-2.2h9.7
				c2.1,0,3.7,2.1,3.1,4.1c-5.6,18.8-19.8,29-40.6,29c-26.6,0-43.6-20.6-43.6-45.8C390.6,130.1,407.5,109.5,434.1,109.5z"/>
			<path class="st3" d="M490.4,186.5h20.9v-57.9h-18.6c-1.8,0-3.2-1.4-3.2-3.2v-8.2c0-1.8,1.4-3.2,3.2-3.2H518
				c5.3,0,9.7,4.3,9.7,9.7l0,2.3c4.6-11.1,14.5-13.8,29.9-13.8c5.9,0,9.8,1,12,1.8c1.3,0.5,2.1,1.7,2.1,3v8.5c0,2.2-2.1,3.7-4.2,3.1
				c-2.8-0.9-6.6-1.7-11.7-1.7c-16.4,0-28.1,11.2-28.1,30.5v29.1h26.8c1.8,0,3.2,1.4,3.2,3.2v8.2c0,1.8-1.4,3.2-3.2,3.2h-64.1
				c-1.8,0-3.2-1.4-3.2-3.2v-8.2C487.2,187.9,488.6,186.5,490.4,186.5z"/>
			<path class="st3" d="M583.9,155.3c0-25.2,16.8-45.8,43.9-45.8s43.9,20.6,43.9,45.8s-16.8,45.8-43.9,45.8S583.9,180.5,583.9,155.3
				z M627.8,186.3c17.5,0,27.5-14.1,27.5-31c0-16.9-10.1-31-27.5-31c-17.5,0-27.5,14.1-27.5,31C600.3,172.2,610.3,186.3,627.8,186.3
				z"/>
			<path class="st3" d="M708.1,187.2h25.2c1.8,0,3.2,1.4,3.2,3.2v7.5c0,1.8-1.4,3.2-3.2,3.2h-37.7c-1.8,0-3.2-1.4-3.2-3.2V98.7
				h-12.5c-1.8,0-3.2-1.4-3.2-3.2V88c0-1.8,1.4-3.2,3.2-3.2h18.6c5.3,0,9.7,4.3,9.7,9.7V187.2z"/>
			<path class="st3" d="M763.8,187.2h25.2c1.8,0,3.2,1.4,3.2,3.2v7.5c0,1.8-1.4,3.2-3.2,3.2h-37.7c-1.8,0-3.2-1.4-3.2-3.2V98.7
				h-12.5c-1.8,0-3.2-1.4-3.2-3.2V88c0-1.8,1.4-3.2,3.2-3.2h18.6c5.3,0,9.7,4.3,9.7,9.7V187.2z"/>
			<path class="st2" d="M250,207.1c-0.4,12.6-10.8,22.7-23.5,22.7l-67.8-0.3c5.4-6.3,8.7-14.4,8.7-23.2c0-13.9-8.3-23.5-8.3-23.5
				h67.5c13,0,23.5,10.5,23.5,23.5L250,207.1z"/>
			<g>
				<path class="st1" d="M83.7,118.8c-7.8-7.4-13.3-16.9-13.3-28.3l0-1.2c0.6-19.4,16.6-35,35.9-35.6l123.4,0
					c3.2,0.1,5.8,2.4,5.8,5.7v104.4c2.9,0.5,4.2,0.9,6.9,1.9c2.1,0.8,5.2,2.5,5.2,2.5V59.4c-0.2-9.9-8-17.9-17.9-17.9l-123.4,0
					c-26.6,0.4-48.1,22.2-48.1,48.9c0,15.5,7.1,28.8,18.7,38.1c0.8,0.6,1.5,1.4,3.6,1.4c3.6,0,6.2-2.9,6-6
					C86.4,121.3,85.3,120.4,83.7,118.8z"/>
				<path class="st1" d="M226.5,170.7h-96.8c-6.5,0.1-11.7,5.3-11.7,11.8v13.9c0.2,6.4,5.7,11.9,12.1,11.9h7.2v-11.9h-7.2v-13.6
					c0,0,1.8,0,3.9,0c12.2,0,21.2,11.4,21.2,23.5c0,10.7-9.8,24.5-26.2,23.4c-14.6-1-22.4-13.9-22.4-23.4l0-118
					c0-5.3-4.3-9.7-9.7-9.7l-9.6,0v12l7.2,0l0,115.6c-0.4,23.5,16.7,35.4,34.6,35.4l97.5,0.3c19.7,0,35.6-16,35.6-35.6
					S246.2,170.7,226.5,170.7z M250,207.1c-0.4,12.6-10.8,22.7-23.5,22.7l-67.8-0.3c5.4-6.3,8.7-14.4,8.7-23.2
					c0-13.9-8.3-23.5-8.3-23.5h67.5c13,0,23.5,10.5,23.5,23.5L250,207.1z"/>
				<path class="st1" d="M200.5,92.9h-73v-12h73c3.3,0,6,2.7,6,6v0C206.5,90.2,203.8,92.9,200.5,92.9z"/>
				<path class="st1" d="M200.5,149.7h-73v-12h73c3.3,0,6,2.7,6,6v0C206.5,147,203.8,149.7,200.5,149.7z"/>
				<path class="st1" d="M213.3,121.3h-85.8v-12h85.8c3.3,0,6,2.7,6,6v0C219.3,118.6,216.7,121.3,213.3,121.3z"/>
			</g>
		</g>
</switch>

</svg>
