<svg version="1.1" id="Layer_1" xmlns="http://www.w3.org/2000/svg" xmlns:xlink="http://www.w3.org/1999/xlink" x="0px" y="0px"
	 width="100%" viewBox="0 0 225 224" enable-background="new 0 0 225 224" xml:space="preserve">
<path fill="#FDFDFD" opacity="1.000000" stroke="none" 
	d="
M66.064919,224.638245 
	C45.867180,225.000000 25.733534,224.907257 5.602322,225.087097 
	C2.056460,225.118759 0.877920,224.605362 0.887909,220.616379 
	C1.047074,157.056992 1.000000,93.497093 1.000000,29.468658 
	C3.357684,28.819920 3.251451,30.987988 3.965550,32.254784 
	C5.984973,35.837193 8.086933,39.296585 12.229794,41.448627 
	C16.261757,44.912243 20.845230,45.420170 25.893661,45.659218 
	C26.810539,45.624859 27.341646,45.620331 28.289623,45.625957 
	C31.306204,45.632736 33.906048,45.641598 36.960678,45.600914 
	C40.218250,45.776760 43.106548,45.148399 46.145409,46.810249 
	C47.872238,49.626213 47.388298,52.343376 47.389824,54.967411 
	C47.417984,103.345108 47.417816,151.722824 47.409485,200.534790 
	C46.971382,207.855392 50.068874,213.132874 55.264168,217.815887 
	C58.435268,221.216415 63.105221,221.351379 66.064919,224.638245 
z"/>
<path fill="#FFFFFF" opacity="1.000000" stroke="none" 
	d="
M179.915741,1.332762 
	C193.974548,1.000000 207.950882,1.120090 221.922287,0.910420 
	C225.168045,0.861711 226.118240,1.319262 226.107346,4.909405 
	C225.950470,56.648006 226.000000,108.387238 226.000000,160.126312 
	C226.000000,171.771774 226.000000,183.417221 226.000000,195.531342 
	C224.644943,196.332932 224.266464,195.292831 223.952576,194.400421 
	C220.773880,185.362595 214.015656,181.309143 204.842453,180.563065 
	C204.353500,180.523300 203.886505,180.312668 203.055084,179.968872 
	C201.929047,179.327606 201.409058,178.661118 200.934799,177.401855 
	C200.454102,174.305161 200.597473,171.639221 200.596863,168.979858 
	C200.586578,123.554611 200.591766,78.129364 200.584625,32.704117 
	C200.584213,30.043339 200.683228,27.379181 200.325027,24.293144 
	C199.856125,22.820692 199.688614,21.727076 199.284714,20.316566 
	C198.718643,17.080639 197.939346,14.349546 195.278595,12.196379 
	C194.710159,11.692937 194.396805,11.393571 193.857849,10.861210 
	C193.317856,10.330305 193.014603,10.020967 192.481583,9.478824 
	C191.941055,8.934629 191.638458,8.615384 191.107056,8.052427 
	C188.088699,4.154908 183.242691,4.198799 179.915741,1.332762 
z"/>
<path fill="#2D232B" opacity="1.000000" stroke="none" 
	d="
M208.150024,224.564728 
	C161.979111,225.000000 115.958214,225.000000 69.468658,225.000000 
	C70.567909,221.091873 74.196114,223.463089 77.035278,222.304962 
	C78.574310,221.478210 79.643448,220.588928 81.052261,219.583679 
	C81.702141,219.098328 82.088295,218.840042 82.797325,218.433929 
	C84.021614,217.955414 84.955566,217.953751 86.231155,218.160034 
	C86.745621,218.383286 86.926994,218.517807 87.257538,218.945877 
	C87.428223,219.448242 87.449738,219.657059 87.454224,220.174622 
	C87.481613,220.686615 87.526031,220.889832 87.850784,221.273270 
	C124.335411,221.429214 160.539703,221.445862 196.744003,221.447006 
	C199.399567,221.447083 202.059708,221.346741 205.163757,221.751419 
	C206.220016,222.010117 206.779648,222.268448 207.615906,222.949646 
	C208.055328,223.566483 208.177673,223.847977 208.150024,224.564728 
z"/>
<path fill="#160519" opacity="1.000000" stroke="none" 
	d="
M179.750000,1.000000 
	C184.094391,2.879519 188.969940,3.275097 192.040802,7.621949 
	C191.862808,8.131174 191.586151,8.304905 190.824600,8.548637 
	C179.909012,3.414207 168.685501,4.594872 157.619385,4.589153 
	C119.573235,4.569492 81.527077,4.585809 43.480923,4.573929 
	C40.665222,4.573050 37.822636,4.789018 34.660156,3.623281 
	C34.080635,3.082838 33.919167,2.798232 34.006683,2.090150 
	C64.849022,1.321663 95.443420,1.607377 126.037201,1.518215 
	C132.522385,1.499315 139.007675,1.515605 145.975891,1.515046 
	C149.309189,1.515787 152.159500,1.515470 155.478241,1.515217 
	C163.362656,1.476821 170.779068,1.594522 178.597382,1.227267 
	C179.000000,1.000000 179.500000,1.000000 179.750000,1.000000 
z"/>
<path fill="#2A1F29" opacity="1.000000" stroke="none" 
	d="
M203.788498,179.401108 
	C207.368729,179.916519 210.923553,180.291229 214.036118,181.666702 
	C220.113495,184.352325 223.796555,189.288162 225.642303,195.900696 
	C226.000000,199.692902 226.000000,203.385818 226.000000,207.539368 
	C224.388489,216.083069 220.112396,221.718002 211.354218,223.412643 
	C210.858932,223.060135 210.715225,222.852921 210.510422,222.273956 
	C210.939316,219.264084 213.273087,218.352417 215.124146,217.071014 
	C221.105621,212.930328 222.895355,206.917160 222.372833,200.157516 
	C221.774033,192.410522 217.745377,186.883820 210.399567,183.973587 
	C208.403717,183.182892 206.266708,182.763092 204.091888,181.437714 
	C203.552704,180.724579 203.472763,180.232590 203.788498,179.401108 
z"/>
<path fill="#201621" opacity="1.000000" stroke="none" 
	d="
M12.009313,42.628654 
	C6.681817,39.543442 3.343659,34.967590 1.358465,29.074600 
	C1.000000,25.638712 1.000000,22.277426 1.000000,18.458069 
	C2.205597,14.645860 3.087988,11.181623 5.497458,8.341022 
	C8.920745,4.305197 12.848399,1.392701 18.705133,1.223109 
	C22.030594,1.000000 25.061186,1.000000 28.545891,1.000000 
	C29.549332,1.581288 30.356850,1.493706 31.234228,2.086277 
	C31.573189,2.892891 31.541418,3.383070 31.098530,4.140906 
	C29.221018,5.281736 27.594563,4.577237 25.970890,4.432977 
	C18.134640,3.736745 10.018434,7.903947 6.834446,14.475387 
	C3.087545,22.208624 3.440646,29.536940 9.457596,36.134235 
	C10.351727,37.114609 11.228892,38.109901 12.063086,39.627678 
	C12.511814,40.766937 12.596150,41.555916 12.009313,42.628654 
z"/>
<path fill="#4D454B" opacity="1.000000" stroke="none" 
	d="
M31.317402,2.302068 
	C30.370907,1.923090 29.788925,1.751860 29.103474,1.290315 
	C68.020897,1.000000 107.041786,1.000000 146.531342,1.000000 
	C147.163864,1.155817 147.327713,1.311634 147.234055,1.688190 
	C109.643097,1.940659 72.309639,1.972389 34.510895,2.028951 
	C33.333767,2.600020 32.551289,2.780102 31.317402,2.302068 
z"/>
<path fill="#F8F8F8" opacity="1.000000" stroke="none" 
	d="
M18.530293,1.000000 
	C10.501184,3.784969 4.320691,8.961911 1.338903,17.894421 
	C1.000000,12.405508 1.000000,6.811016 1.000000,1.216524 
	C6.686861,1.144349 12.373722,1.072175 18.530293,1.000000 
z"/>
<path fill="#FAF9F9" opacity="1.000000" stroke="none" 
	d="
M210.778717,223.163666 
	C218.357101,220.598465 223.272125,215.752899 225.646561,208.088287 
	C226.000000,213.594498 226.000000,219.188980 226.000000,224.783478 
	C220.313141,224.855667 214.626282,224.927841 208.469711,225.000000 
	C208.000000,225.000000 208.395096,224.728470 208.402435,224.488892 
	C208.745895,223.241867 209.587311,223.138580 210.778717,223.163666 
z"/>
<path fill="#1B0D1C" opacity="1.000000" stroke="none" 
	d="
M78.671341,222.609879 
	C76.169395,225.449127 72.550636,223.004593 69.279221,224.708405 
	C68.250000,225.000000 67.500000,225.000000 66.375000,225.000000 
	C62.399681,223.248322 58.799366,221.496658 55.074112,219.417480 
	C54.776089,218.490295 54.949108,218.017471 55.867771,217.555939 
	C63.390610,220.169067 70.724579,221.949600 78.671341,222.609879 
z"/>
<path fill="#31252D" opacity="1.000000" stroke="none" 
	d="
M178.531372,1.000000 
	C174.251404,3.109048 169.253754,1.537603 164.387772,1.957485 
	C161.914200,2.170928 159.406784,1.992286 156.444702,1.975243 
	C155.820358,1.795488 155.665970,1.631379 155.755798,1.233635 
	C163.354248,1.000000 170.708496,1.000000 178.531372,1.000000 
z"/>
<path fill="#45393C" opacity="1.000000" stroke="none" 
	d="
M155.550934,1.000000 
	C156.000000,1.000000 155.998199,1.480850 155.986465,1.720223 
	C153.276199,1.965129 150.577682,1.970660 147.427856,1.942561 
	C146.976547,1.908929 146.994324,1.454620 146.997162,1.227310 
	C149.700623,1.000000 152.401260,1.000000 155.550934,1.000000 
z"/>
<path fill="#2D222B" opacity="1.000000" stroke="none" 
	d="
M11.891355,43.164780 
	C11.560785,42.194946 11.421576,41.490330 11.124737,40.452957 
	C12.312574,38.604927 14.032095,39.340778 15.637552,39.325249 
	C20.612024,39.277142 25.204569,38.229050 28.548540,34.136353 
	C29.388147,33.108757 30.407907,31.935467 29.921541,30.579073 
	C29.362312,29.019472 27.715322,29.423241 26.440865,29.383289 
	C23.458557,29.289804 20.465387,29.521475 17.491604,29.210722 
	C14.102978,28.856623 11.373398,27.403696 10.436369,23.899384 
	C9.540529,20.549114 11.391623,18.114878 13.785478,16.154482 
	C17.152098,13.397467 21.194317,12.738806 25.444798,12.603237 
	C30.548210,12.440465 35.725147,13.396223 41.148308,11.662668 
	C43.901943,11.873066 44.939175,13.276992 44.867085,15.968688 
	C44.679646,16.602232 44.556400,16.834608 44.136837,17.312376 
	C41.096321,19.005346 37.076244,16.871849 35.412373,19.027603 
	C33.950935,20.921076 36.864037,24.125149 36.616997,26.927572 
	C36.038692,33.487965 32.948338,41.668682 22.433777,43.733822 
	C24.127363,44.227570 26.319309,43.799381 26.327129,46.671532 
	C21.291782,46.538830 16.355444,46.299278 11.891355,43.164780 
z"/>
<path fill="#B88E67" opacity="1.000000" stroke="none" 
	d="
M26.420315,47.098351 
	C26.889967,44.725018 25.117729,45.137379 23.927027,44.851440 
	C22.415649,44.488495 20.481323,45.525620 19.455933,43.524178 
	C34.295925,40.989731 38.948025,27.585423 31.796165,17.044035 
	C35.789440,17.044035 39.328442,17.044035 43.300812,17.143631 
	C45.974648,18.703773 46.240959,21.021135 46.365540,23.380087 
	C46.611324,28.034216 46.474007,32.693035 46.476738,37.349552 
	C46.481720,45.845745 46.345730,45.961266 37.393944,45.996727 
	C34.099430,46.211002 31.198780,45.492950 28.062103,46.781883 
	C27.365139,47.089603 27.015064,47.149979 26.420315,47.098351 
z"/>
<path fill="#0A0109" opacity="1.000000" stroke="none" 
	d="
M46.527588,203.191589 
	C45.001949,193.869217 45.755917,184.733932 45.751839,175.610153 
	C45.732822,133.078949 45.758156,90.547737 45.734135,47.555023 
	C46.240044,46.664742 46.850002,46.503963 47.947735,46.869583 
	C49.785755,49.198544 49.567814,51.580677 49.569328,53.889214 
	C49.594196,91.822548 49.731716,129.756714 49.495888,167.688736 
	C49.425762,178.968384 48.385151,190.242126 48.707935,202.008591 
	C48.213825,203.101181 47.684689,203.410004 46.527588,203.191589 
z"/>
<path fill="#2D222B" opacity="1.000000" stroke="none" 
	d="
M47.913273,46.831310 
	C47.087730,47.055984 46.692066,47.081501 45.998520,47.100266 
	C43.084030,47.060760 40.467426,47.028000 37.415894,46.918182 
	C36.456841,46.574974 35.971207,46.269604 35.904121,45.399506 
	C45.183132,44.565685 45.310524,44.563271 45.135414,35.323864 
	C45.026051,29.553400 46.070850,23.673658 43.824783,17.641378 
	C43.928326,17.054253 44.122471,16.865282 44.606171,16.391165 
	C47.299366,17.207993 48.053699,19.487879 48.444317,21.733458 
	C49.886356,30.023342 50.545933,38.342670 47.913273,46.831310 
z"/>
<path fill="#342A32" opacity="1.000000" stroke="none" 
	d="
M46.032967,203.368347 
	C46.445843,202.966415 46.807468,202.952362 47.441360,202.941498 
	C51.355320,207.197784 53.029320,212.641907 56.280495,217.489716 
	C55.930058,218.089203 55.594418,218.321426 55.103981,218.821808 
	C49.875652,215.197708 47.277096,209.858017 46.032967,203.368347 
z"/>
<path fill="#2F242C" opacity="1.000000" stroke="none" 
	d="
M35.583454,45.082108 
	C36.274235,45.556976 36.521214,45.978218 36.874580,46.620289 
	C34.212456,46.922928 31.443941,47.004734 28.195320,47.057884 
	C29.296894,43.048042 32.736336,45.960697 35.583454,45.082108 
z"/>
<path fill="#0C0210" opacity="1.000000" stroke="none" 
	d="
M200.515442,21.914017 
	C201.882629,24.047028 201.861847,26.216681 201.860291,28.378420 
	C201.824524,77.917465 201.784439,127.456505 201.697403,177.456512 
	C201.055695,178.323395 200.434479,178.369812 199.489731,177.658386 
	C198.211639,175.042862 198.400940,172.683334 198.399948,170.363098 
	C198.379959,123.550789 198.383011,76.738480 198.394699,29.926170 
	C198.395233,27.764847 198.291718,25.588165 199.129822,23.019035 
	C199.565506,22.318092 199.793350,22.073349 200.515442,21.914017 
z"/>
<path fill="#2A1F29" opacity="1.000000" stroke="none" 
	d="
M194.816452,11.037926 
	C197.852295,12.616762 199.292786,15.190873 199.884506,18.646469 
	C199.639435,19.147013 199.449585,19.281523 198.909821,19.416245 
	C196.105972,17.761963 194.974548,15.263013 194.197784,12.199085 
	C194.313889,11.631398 194.408508,11.415933 194.816452,11.037926 
z"/>
<path fill="#45393C" opacity="1.000000" stroke="none" 
	d="
M199.578979,177.881927 
	C200.360977,177.936920 200.729599,177.874603 201.373947,177.864899 
	C202.218475,178.241638 202.787292,178.565781 203.684937,178.989716 
	C204.011505,179.483337 204.009247,179.877167 204.017944,180.566223 
	C202.946289,182.207275 201.519867,182.175766 199.622955,181.681671 
	C198.447891,180.918137 198.234207,180.108551 198.423721,178.778839 
	C198.757919,178.167145 198.961761,177.965881 199.578979,177.881927 
z"/>
<path fill="#201621" opacity="1.000000" stroke="none" 
	d="
M198.489441,19.420712 
	C198.847916,19.079086 199.044312,19.067619 199.535004,19.034327 
	C200.261383,19.784880 200.693481,20.557262 201.067627,21.664530 
	C200.763626,22.015804 200.517578,22.032192 199.902573,22.074398 
	C198.349396,21.718670 198.225372,20.792793 198.489441,19.420712 
z"/>
<path fill="#2A1F29" opacity="1.000000" stroke="none" 
	d="
M190.809052,8.445863 
	C190.995407,8.084012 191.223801,8.054982 191.795837,7.991697 
	C192.506805,7.945159 192.782135,8.098286 192.791626,8.887016 
	C191.903015,9.548798 191.305634,9.381881 190.809052,8.445863 
z"/>
<path fill="#2A1F29" opacity="1.000000" stroke="none" 
	d="
M192.926208,9.108116 
	C193.393372,9.052585 193.685791,9.213924 193.899887,9.833861 
	C193.461777,10.341324 193.119217,10.285086 192.599060,9.942154 
	C192.519943,9.615355 192.635696,9.470172 192.926208,9.108116 
z"/>
<path fill="#2A1F29" opacity="1.000000" stroke="none" 
	d="
M193.931366,10.069812 
	C194.416397,10.038819 194.694565,10.213923 195.051254,10.632204 
	C194.977417,11.003947 194.825043,11.132510 194.442688,11.452183 
	C194.035294,11.509723 193.857895,11.376150 193.495728,10.965435 
	C193.448792,10.550832 193.586639,10.413369 193.931366,10.069812 
z"/>
<path fill="#E2CEB5" opacity="1.000000" stroke="none" 
	d="
M193.142029,10.551870 
	C193.460007,10.945134 193.647507,11.169906 194.043060,11.502953 
	C195.535889,13.969811 196.859085,16.296324 198.416901,18.856693 
	C198.825699,19.919178 198.999878,20.747805 199.353821,21.838326 
	C200.486984,39.419186 199.724243,56.748543 199.801544,74.072365 
	C199.954742,108.402817 199.884384,142.734268 199.949387,177.532272 
	C199.789200,178.047821 199.586075,178.096405 199.144913,178.348709 
	C196.034592,180.115356 192.917038,180.407410 189.718719,180.407501 
	C157.237518,180.408432 124.756325,180.416443 92.275131,180.396637 
	C90.107269,180.395309 87.939392,180.366821 85.398987,179.574341 
	C84.347725,179.460861 83.751595,179.445312 82.726570,179.462433 
	C79.314911,179.426956 76.320824,179.132965 72.991196,179.938080 
	C62.573494,182.243195 56.541977,190.451019 57.357185,200.809921 
	C58.065983,209.816727 66.270958,217.927246 75.404778,218.661667 
	C77.375778,218.820160 79.430344,218.462234 81.478371,219.876099 
	C80.867065,220.905396 80.031281,221.631958 79.085144,222.622787 
	C71.162994,223.412216 63.553921,222.968094 56.551434,218.057098 
	C52.221355,213.867981 49.197334,209.289673 47.880768,203.286682 
	C46.797924,186.507614 47.730377,170.067612 47.661228,153.628479 
	C47.513069,118.406448 47.573971,83.183548 47.516327,47.495743 
	C47.249794,36.901550 49.501377,26.593908 45.100739,16.427967 
	C44.829590,14.362833 43.707817,13.112570 42.519440,11.603849 
	C41.992882,11.407875 41.802315,11.344574 41.354797,11.120214 
	C40.474792,10.421939 39.945339,9.793009 39.152855,8.974365 
	C37.457325,6.834243 34.638954,6.284076 33.923782,3.380659 
	C80.605629,3.049511 127.192696,3.084692 173.779449,2.977969 
	C179.825623,2.964118 185.284531,4.199545 190.446899,7.988113 
	C191.154922,8.544147 191.542831,8.975249 192.167480,9.583445 
	C192.576706,9.993721 192.766357,10.212024 193.142029,10.551870 
z"/>
<path fill="#D6AE94" opacity="1.000000" stroke="none" 
	d="
M198.525986,180.481583 
	C200.349167,180.841217 201.767029,180.924759 203.606903,180.934875 
	C220.259537,184.858795 226.882095,194.480057 223.017334,208.396988 
	C221.280807,214.650177 216.808731,218.350708 211.103714,221.380875 
	C210.383163,223.211395 208.896408,222.858414 207.394501,223.142303 
	C167.751099,223.022812 128.478668,222.973587 89.206253,222.903946 
	C87.740692,222.901337 86.275467,222.700287 84.810089,222.591721 
	C84.831116,222.482971 84.814087,222.330124 84.879929,222.273270 
	C85.130058,222.057281 85.406998,221.872330 85.863190,221.415771 
	C86.246063,220.842728 86.472481,220.555878 87.009109,220.260315 
	C87.281761,220.221634 87.211327,220.295624 87.261688,220.287109 
	C90.406059,215.633942 94.555717,211.594223 95.593269,205.468018 
	C95.506622,204.728348 95.360847,204.335541 94.959152,203.695526 
	C94.655098,203.231018 94.537758,203.038467 94.294205,202.525482 
	C93.852959,201.034897 93.918571,199.854813 94.132217,198.308807 
	C94.719566,192.541687 91.708817,188.753647 88.397049,185.060562 
	C87.197113,183.722458 84.136398,182.771866 87.436180,180.138062 
	C121.811951,179.925827 155.762329,180.016678 189.712509,180.049927 
	C192.508591,180.052658 195.339005,179.263107 198.525986,180.481583 
z"/>
<path fill="#31252D" opacity="1.000000" stroke="none" 
	d="
M86.032890,180.558533 
	C90.544167,184.788681 94.287109,189.314575 96.021858,195.208160 
	C96.530487,196.936142 97.164291,198.716309 96.039986,200.905319 
	C94.126740,200.646912 93.675102,199.327911 93.218590,198.130356 
	C91.923317,194.732559 89.593338,193.766296 86.210609,194.720810 
	C88.829376,206.739517 84.692604,214.309647 75.094147,216.541168 
	C77.338776,216.329437 80.469566,214.441376 83.369476,217.672577 
	C83.120941,218.555664 82.788254,219.084076 82.079208,219.895645 
	C74.448280,220.122147 67.660843,219.472412 62.108208,213.542526 
	C51.042591,201.725052 55.663361,183.475708 71.606995,178.912292 
	C72.714172,179.293961 73.159668,179.849655 73.139740,180.996536 
	C71.635811,182.863678 69.682579,183.487762 68.012741,184.548965 
	C59.208961,190.143951 57.652496,202.356140 64.678093,210.074692 
	C67.215607,212.862488 70.100876,212.731171 73.326958,211.867798 
	C76.923447,210.905258 79.651421,208.860931 81.110695,205.481628 
	C81.955788,203.524612 80.203949,203.372406 78.860161,203.294937 
	C75.884209,203.123322 72.890259,203.439987 69.571213,202.908051 
	C68.757065,202.702194 68.303345,202.545319 67.526299,202.222855 
	C63.573799,199.465378 64.454445,196.357117 66.552917,193.462799 
	C69.590340,189.273453 73.970985,188.064911 78.886642,189.031921 
	C81.891396,189.623032 84.738869,189.450500 88.013649,188.557251 
	C86.658936,185.552505 83.379875,185.176300 81.533417,182.721130 
	C80.976723,181.378937 80.987061,180.375092 81.705917,179.090698 
	C82.438652,178.702499 82.910255,178.609619 83.722061,178.655731 
	C84.933243,179.009628 85.745407,179.307938 86.032890,180.558533 
z"/>
<path fill="#B48B65" opacity="1.000000" stroke="none" 
	d="
M83.767914,218.070374 
	C79.814240,216.520004 75.886574,217.731232 71.449532,216.622253 
	C77.184883,215.262344 82.032761,213.385849 84.255775,208.085907 
	C86.308640,203.191589 87.051407,198.233337 83.379539,193.512451 
	C92.408310,192.257385 92.408310,192.257385 95.244598,200.598389 
	C95.442734,201.571732 95.387215,201.919907 95.185425,202.358734 
	C95.453133,209.094269 92.853149,214.257584 87.009232,218.053650 
	C85.780647,218.100845 84.931419,218.107162 83.767914,218.070374 
z"/>
<path fill="#31252D" opacity="1.000000" stroke="none" 
	d="
M86.785561,218.645172 
	C90.848076,213.942612 93.891487,209.160522 94.842621,202.800003 
	C95.039154,202.449356 95.368599,202.492111 95.445648,202.639252 
	C95.847603,203.016663 96.167686,203.253433 96.673325,203.726837 
	C96.417068,210.723190 92.815308,215.729813 87.611771,220.144455 
	C87.188454,219.917664 87.064850,219.556747 86.785561,218.645172 
z"/>
<path fill="#150E1E" opacity="1.000000" stroke="none" 
	d="
M207.194946,223.332733 
	C208.090881,222.655182 209.158218,222.234848 210.558273,221.721527 
	C210.929749,221.894257 210.968506,222.159973 211.049728,222.826202 
	C210.397629,223.556747 209.703079,223.886749 208.709137,224.233032 
	C208.061966,224.029526 207.714157,223.809738 207.194946,223.332733 
z"/>
<path fill="#31252D" opacity="1.000000" stroke="none" 
	d="
M87.003052,220.260239 
	C87.053818,220.496796 86.825874,220.771973 86.325195,221.101456 
	C86.276421,220.870132 86.500381,220.584488 87.003052,220.260239 
z"/>
<path fill="#31252D" opacity="1.000000" stroke="none" 
	d="
M34.023006,2.807139 
	C36.084118,4.769274 38.149578,6.480206 40.385803,8.492800 
	C40.408970,8.999959 40.261372,9.205454 39.768997,9.570734 
	C35.856346,9.766134 33.330166,7.796225 30.943890,5.009254 
	C30.886150,4.076867 30.922985,3.510110 30.956352,2.518836 
	C31.726000,2.063843 32.499111,2.033366 33.658913,2.028336 
	C34.039520,2.221167 34.033440,2.388551 34.023006,2.807139 
z"/>
<path fill="#C8A38B" opacity="1.000000" stroke="none" 
	d="
M30.467131,4.477570 
	C33.155724,6.094670 35.462132,7.545716 38.069294,9.098063 
	C39.598869,9.463306 40.553642,10.279568 41.848217,11.130265 
	C42.052937,11.436952 42.121025,11.443990 42.152237,11.457583 
	C40.865799,13.938142 38.821430,14.469479 36.118801,14.275517 
	C31.986485,13.978951 27.822933,14.084166 23.672606,14.081864 
	C19.906055,14.079776 16.420300,14.961272 13.695708,17.771025 
	C11.999650,19.520096 10.907996,21.530516 11.765067,24.063772 
	C12.691333,26.801548 14.830929,27.884205 17.536839,27.916117 
	C22.503693,27.974686 27.471731,27.932812 32.446980,27.932812 
	C32.155022,37.378685 21.899931,42.580788 11.365779,40.168724 
	C4.226225,33.401920 0.858838,25.802639 4.553138,16.253094 
	C8.638983,5.691428 19.315588,0.665581 30.467131,4.477570 
z"/>
<path fill="#1C111F" opacity="1.000000" stroke="none" 
	d="
M86.425934,180.903198 
	C85.377968,180.336365 84.801170,179.795166 84.143311,179.024353 
	C93.514183,178.720871 102.966011,178.602432 112.418060,178.581512 
	C140.972488,178.518295 169.526993,178.492950 198.494171,178.502640 
	C198.922485,179.103333 198.938095,179.654236 198.942505,180.481415 
	C161.586578,180.814743 124.241837,180.871780 86.425934,180.903198 
z"/>
<path fill="#C1946C" opacity="1.000000" stroke="none" 
	d="
M173.858124,106.841934 
	C158.961060,107.275055 144.449524,107.092316 129.885696,106.234581 
	C113.190056,105.251289 96.392036,106.014915 79.638527,105.992996 
	C77.823898,105.990623 76.009506,105.811836 73.882065,105.360626 
	C71.352295,106.204308 69.968292,105.204849 69.474609,103.101662 
	C68.965370,100.932190 70.283585,99.668541 72.322212,99.171219 
	C73.126595,98.974983 73.975487,99.014114 74.807610,99.015427 
	C110.733986,99.072090 146.660660,98.842133 183.060745,99.260788 
	C185.182953,100.439537 185.193253,102.013306 184.718750,104.102661 
	C184.054779,105.445923 183.097153,105.517746 181.848801,105.877708 
	C179.028000,106.248718 176.522079,105.462570 173.858124,106.841934 
z"/>
<path fill="#BF936C" opacity="1.000000" stroke="none" 
	d="
M165.868713,64.221558 
	C164.903595,64.748825 164.106110,64.897728 163.257965,64.894974 
	C138.910690,64.815895 114.563408,64.733780 89.888794,64.318985 
	C84.553276,66.016373 79.318443,64.558281 73.712509,64.968842 
	C69.689941,64.628326 68.627998,62.688725 69.921448,59.040283 
	C71.946175,57.727180 73.808578,58.017426 75.613045,58.016991 
	C110.625603,58.008511 145.638153,57.981594 181.149841,58.040607 
	C185.721024,59.888832 185.880936,60.720348 182.415741,64.668808 
	C176.723404,64.913910 171.491760,65.494751 165.868713,64.221558 
z"/>
<path fill="#382D36" opacity="1.000000" stroke="none" 
	d="
M69.497284,37.863327 
	C71.365623,35.954140 73.736206,36.121143 76.056770,36.120502 
	C110.199120,36.111111 144.341492,36.105129 178.483795,36.138508 
	C180.294983,36.140278 182.146576,36.324909 183.906311,36.736649 
	C186.037796,37.235371 186.618088,39.044018 186.628220,40.995029 
	C186.638504,42.976810 185.954422,44.701488 183.816330,45.158409 
	C182.046097,45.536720 180.203537,45.739471 178.392761,45.741226 
	C144.416824,45.774158 110.440834,45.762669 76.464859,45.771984 
	C74.293556,45.772579 72.130341,45.799698 69.728958,44.761242 
	C69.533302,44.232792 69.670036,43.940502 70.200485,43.367935 
	C73.346588,42.139214 76.204636,42.441475 79.023033,42.439217 
	C110.689621,42.413837 142.356247,42.437401 174.022812,42.400318 
	C176.424561,42.397507 178.962219,42.843891 181.774933,41.005009 
	C179.183914,39.237652 176.698547,39.598186 174.359375,39.595863 
	C142.692795,39.564442 111.026176,39.582066 79.359573,39.567635 
	C76.698235,39.566422 74.022659,39.745888 70.930038,39.026009 
	C70.208977,38.680305 69.943321,38.496628 69.497284,37.863327 
z"/>
<path fill="#241C29" opacity="1.000000" stroke="none" 
	d="
M70.079285,160.537201 
	C71.681786,159.060059 73.529037,159.164429 75.358032,159.164398 
	C109.803528,159.163681 144.249023,159.157333 178.694504,159.182602 
	C180.344986,159.183807 182.029800,159.306000 183.637604,159.653885 
	C186.073593,160.180969 186.535172,162.170837 186.484741,164.289688 
	C186.436386,166.321320 185.540237,167.858902 183.379150,168.193787 
	C181.743408,168.447281 180.074722,168.604614 178.420563,168.605759 
	C144.308945,168.629257 110.197289,168.635406 76.085701,168.595932 
	C74.113045,168.593658 72.140854,168.174698 69.864517,167.697968 
	C69.705330,167.157364 69.850075,166.868469 70.400803,166.316696 
	C73.392334,165.153717 76.079498,165.434174 78.728989,165.432083 
	C110.191635,165.407410 141.654327,165.430862 173.116943,165.395554 
	C175.693512,165.392670 178.395401,165.831192 181.302246,163.991837 
	C179.022354,162.104172 176.669189,162.613251 174.537628,162.610428 
	C143.075012,162.568909 111.612328,162.586563 80.149658,162.577148 
	C77.654869,162.576401 75.153786,162.688248 72.200195,162.212402 
	C71.111343,161.869827 70.581566,161.510483 70.079285,160.537201 
z"/>
<path fill="#2E212A" opacity="1.000000" stroke="none" 
	d="
M184.159760,100.213745 
	C175.112045,100.046593 166.457550,99.876709 157.802841,99.864990 
	C130.157318,99.827538 102.511688,99.835976 74.866180,99.878311 
	C73.156433,99.880928 70.892975,99.245522 70.161041,101.597321 
	C69.538155,103.598747 70.692650,104.732651 73.152649,104.972153 
	C73.569122,105.006371 73.496445,105.363693 73.323898,105.422585 
	C72.935379,105.808792 72.721237,106.137299 72.279633,106.651222 
	C68.345329,106.865364 67.865166,104.394035 67.888321,101.502251 
	C67.911858,98.562424 69.999176,98.071877 72.248589,97.843361 
	C73.402588,97.726135 74.574776,97.771324 75.738739,97.771217 
	C110.004860,97.768021 144.270996,97.759613 178.537079,97.790802 
	C180.511993,97.792603 182.486618,98.121384 184.748474,98.616417 
	C185.225266,99.509857 185.064407,99.959396 184.159760,100.213745 
z"/>
<path fill="#2E232C" opacity="1.000000" stroke="none" 
	d="
M69.406075,119.853668 
	C71.089249,118.033920 73.254639,118.029503 75.425606,118.029381 
	C109.983604,118.027527 144.541611,118.011650 179.099579,118.041992 
	C181.696808,118.044273 184.722336,117.627930 186.076935,120.627701 
	C187.076706,122.841690 187.055969,125.204247 184.303253,126.847702 
	C183.373871,126.623795 182.929596,126.228615 182.481659,125.251564 
	C182.129456,122.537460 180.641479,121.788719 178.595978,121.648941 
	C176.765961,121.523888 174.935608,121.543655 173.105011,121.543449 
	C141.807587,121.539955 110.510147,121.546188 79.212715,121.532799 
	C76.554489,121.531662 73.881889,121.712624 70.803703,120.993103 
	C70.100632,120.653145 69.841812,120.472824 69.406075,119.853668 
z"/>
<path fill="#2F242C" opacity="1.000000" stroke="none" 
	d="
M184.313004,146.913818 
	C182.363541,148.458405 180.325287,148.084198 178.358978,148.085587 
	C144.249069,148.109619 110.139114,148.123672 76.029327,148.059448 
	C74.053726,148.055740 71.713242,148.999634 70.465866,146.043091 
	C72.966042,144.204819 75.330528,144.407669 77.647636,144.406082 
	C110.619423,144.383514 143.591217,144.385391 176.563019,144.401749 
	C178.722137,144.402832 180.902802,144.296402 183.414185,145.338257 
	C184.032455,145.868988 184.219421,146.145477 184.313004,146.913818 
z"/>
<path fill="#10061C" opacity="1.000000" stroke="none" 
	d="
M70.815048,139.568390 
	C80.811546,139.026886 90.595139,138.863419 100.378754,138.862473 
	C127.929054,138.859802 155.479355,138.923965 183.482391,139.075409 
	C184.360840,139.761551 184.453232,140.383698 183.833389,141.377655 
	C181.271500,142.780716 178.912613,142.592422 176.598816,142.594025 
	C143.853455,142.616806 111.108078,142.613373 78.362709,142.600128 
	C76.370911,142.599319 74.367638,142.660736 71.967514,141.877563 
	C70.917320,141.283020 70.614410,140.731735 70.815048,139.568390 
z"/>
<path fill="#100319" opacity="1.000000" stroke="none" 
	d="
M182.150513,58.351151 
	C147.265167,58.607559 112.610146,58.647324 77.955200,58.718792 
	C75.634865,58.723576 73.315025,58.968403 70.563919,59.280212 
	C69.943024,59.204441 69.753159,58.950047 69.726715,58.248421 
	C71.472710,56.507153 73.377602,56.884697 75.161652,56.884151 
	C110.462166,56.873394 145.762695,56.897602 181.525314,56.994297 
	C182.341599,57.347755 182.461609,57.707893 182.150513,58.351151 
z"/>
<path fill="#171020" opacity="1.000000" stroke="none" 
	d="
M70.105164,78.567436 
	C71.694359,77.058601 73.548386,77.188416 75.377388,77.188446 
	C109.869148,77.189125 144.360916,77.194954 178.852676,77.188049 
	C180.862915,77.187645 182.856995,77.191139 184.644165,78.821732 
	C182.932556,80.552063 181.081497,80.573822 179.251785,80.575256 
	C144.431793,80.602570 109.611786,80.665367 74.791855,80.547485 
	C74.125565,80.545227 73.462593,80.456810 72.317703,80.247871 
	C71.194847,79.909607 70.643326,79.551514 70.105164,78.567436 
z"/>
<path fill="#10061C" opacity="1.000000" stroke="none" 
	d="
M185.184998,84.661469 
	C183.844131,86.695137 182.061569,86.366936 180.476700,86.368156 
	C144.799835,86.395569 109.122963,86.381294 73.446098,86.361931 
	C72.620880,86.361481 71.795753,86.211525 70.526978,85.983780 
	C70.090599,85.124535 70.406448,84.597168 71.480591,84.058640 
	C74.384140,83.232071 76.889969,83.422867 79.376709,83.415657 
	C114.119034,83.314941 148.861877,83.582726 184.079132,83.402824 
	C184.805710,83.754410 185.057053,83.968246 185.184998,84.661469 
z"/>
<path fill="#10061C" opacity="1.000000" stroke="none" 
	d="
M182.202423,125.386627 
	C182.945480,125.894699 183.277405,126.129005 183.779907,126.616524 
	C181.970383,127.044952 179.990402,127.371086 178.010147,127.372955 
	C144.209671,127.404861 110.409157,127.401100 76.608658,127.387421 
	C74.291817,127.386482 71.937469,127.611740 69.456924,126.357574 
	C69.659515,125.519119 70.204742,125.149635 71.322739,124.781311 
	C81.258804,124.085831 90.723442,124.434265 100.183266,124.411446 
	C124.757156,124.352165 149.331314,124.381508 173.905319,124.405014 
	C176.547028,124.407539 179.231339,124.120872 182.202423,125.386627 
z"/>
<path fill="#1B0D1C" opacity="1.000000" stroke="none" 
	d="
M165.203644,64.466667 
	C170.639938,64.036194 175.841309,64.086555 181.505875,64.189514 
	C182.311646,64.541306 182.462173,64.917381 182.201752,65.608856 
	C176.307800,65.617134 170.532211,67.287262 165.203644,64.466667 
z"/>
<path fill="#1B0D1C" opacity="1.000000" stroke="none" 
	d="
M72.817368,64.486206 
	C78.219292,64.191986 83.387573,64.133179 89.058655,64.030090 
	C90.540321,66.775826 88.215752,65.945366 87.145912,65.974861 
	C82.747566,66.096092 78.343811,66.021118 73.480591,65.948441 
	C72.662041,65.572701 72.526802,65.183327 72.817368,64.486206 
z"/>
<path fill="#1C111F" opacity="1.000000" stroke="none" 
	d="
M73.302284,181.145203 
	C72.739784,180.357483 72.452744,179.906509 72.075790,179.203766 
	C74.980484,177.635666 78.059738,178.303299 81.544296,178.678787 
	C81.972054,179.634735 81.977058,180.474106 81.995010,181.628296 
	C79.132942,182.976471 76.335785,182.586777 73.302284,181.145203 
z"/>
<path fill="#2A1F29" opacity="1.000000" stroke="none" 
	d="
M182.346680,65.893967 
	C181.977997,65.490601 181.973145,65.133820 181.968674,64.509567 
	C184.837646,62.801498 185.681458,61.107830 182.276718,58.744019 
	C181.921524,58.228992 181.943222,57.899006 181.986328,57.322121 
	C184.621918,57.149067 186.371719,58.321461 186.547607,61.090733 
	C186.718124,63.775715 185.560623,65.567474 182.346680,65.893967 
z"/>
<path fill="#31252D" opacity="1.000000" stroke="none" 
	d="
M72.698776,64.127350 
	C73.039467,64.612404 73.027931,64.974030 73.017761,65.607109 
	C67.613235,65.052116 66.727921,63.261612 69.515862,57.918823 
	C69.926163,58.077950 69.962189,58.354706 70.065552,59.045151 
	C69.992554,61.401600 69.458206,63.536266 72.698776,64.127350 
z"/>
<path fill="#4D3B37" opacity="1.000000" stroke="none" 
	d="
M183.721313,141.503891 
	C183.971237,140.748016 183.968262,140.302658 183.950195,139.523178 
	C187.796051,141.429138 187.573059,144.164566 184.562988,147.301025 
	C184.174545,147.093353 184.129471,146.781036 183.970474,146.009308 
	C182.844162,144.396469 182.871368,143.135040 183.721313,141.503891 
z"/>
<path fill="#3F3235" opacity="1.000000" stroke="none" 
	d="
M183.880859,100.505203 
	C184.094818,99.918259 184.422989,99.692436 184.893341,99.200729 
	C187.609589,101.404640 187.226318,103.798294 184.493835,106.193527 
	C183.918228,105.994629 183.698761,105.742859 183.713455,105.048126 
	C183.963425,103.358910 183.979248,102.112625 183.880859,100.505203 
z"/>
<path fill="#3F3235" opacity="1.000000" stroke="none" 
	d="
M71.413719,84.162125 
	C71.038437,84.752083 70.710564,85.015778 70.233032,85.557877 
	C66.573692,83.644440 67.318115,81.011345 69.664345,78.162369 
	C70.273773,78.374321 70.515373,78.674156 71.012054,79.119728 
	C71.601227,80.777496 71.249443,82.318634 71.413719,84.162125 
z"/>
<path fill="#342A32" opacity="1.000000" stroke="none" 
	d="
M70.637650,139.077530 
	C71.023987,139.498383 71.020042,139.880600 71.004288,140.549347 
	C71.854568,142.475235 71.392326,143.967911 70.227943,145.722717 
	C69.970154,146.034042 69.982666,145.979889 70.006676,145.965515 
	C66.962845,144.185684 67.017273,142.449585 70.637650,139.077530 
z"/>
<path fill="#3F3235" opacity="1.000000" stroke="none" 
	d="
M173.987000,107.090797 
	C174.576172,104.888504 174.576172,104.888504 180.634094,105.086044 
	C181.390839,105.530746 181.503860,105.937424 181.234955,106.656876 
	C178.838043,106.988373 176.649734,107.059364 173.987000,107.090797 
z"/>
<path fill="#2E232C" opacity="1.000000" stroke="none" 
	d="
M71.475800,125.289833 
	C70.943611,125.728592 70.453812,125.852463 69.585304,126.000603 
	C67.155396,124.143799 67.593819,122.067833 68.979607,119.676041 
	C69.468559,119.613205 69.707954,119.811584 70.288544,120.327896 
	C71.132759,122.046417 71.332062,123.509331 71.475800,125.289833 
z"/>
<path fill="#382D36" opacity="1.000000" stroke="none" 
	d="
M69.736969,44.202972 
	C67.195351,42.501835 67.409187,40.256733 69.052643,37.659142 
	C69.550598,37.625824 69.784279,37.837936 70.355644,38.381802 
	C71.217484,39.981674 70.965919,41.281906 70.795639,42.896194 
	C70.517830,43.437622 70.297600,43.659241 69.736969,44.202972 
z"/>
<path fill="#241C29" opacity="1.000000" stroke="none" 
	d="
M69.850983,167.139130 
	C67.983345,166.657440 67.875198,165.221054 68.002853,163.364777 
	C68.470345,162.671509 68.912697,162.498917 69.768845,162.660233 
	C70.809769,163.577698 70.833382,164.538818 70.768356,165.861237 
	C70.525108,166.419174 70.333244,166.625565 69.850983,167.139130 
z"/>
<path fill="#362C34" opacity="1.000000" stroke="none" 
	d="
M70.154320,162.947418 
	C69.452141,163.011414 69.062469,163.005051 68.380569,163.004913 
	C67.818527,161.750549 68.598595,160.968872 69.697441,160.120300 
	C70.286629,160.366867 70.555206,160.679474 71.102692,161.135986 
	C71.343796,161.965271 71.006561,162.479156 70.154320,162.947418 
z"/>
<path fill="#171020" opacity="1.000000" stroke="none" 
	d="
M185.421783,84.951050 
	C185.012146,84.865173 184.962708,84.589493 184.836929,83.900696 
	C183.962769,82.573708 184.026505,81.475456 184.174713,80.058289 
	C184.416183,79.580383 184.577652,79.420425 184.981506,79.020660 
	C187.043060,80.621925 186.649429,82.669479 185.421783,84.951050 
z"/>
<path fill="#2D222B" opacity="1.000000" stroke="none" 
	d="
M42.133469,11.115879 
	C40.141369,12.690484 39.796875,10.595491 38.581165,9.555181 
	C38.734158,9.130488 39.098263,9.061613 40.009468,8.893600 
	C41.109047,9.461244 41.661526,10.128025 42.133469,11.115879 
z"/>
<path fill="#060013" opacity="1.000000" stroke="none" 
	d="
M181.353836,106.947403 
	C181.016785,106.531731 181.007202,106.146072 181.037842,105.472366 
	C181.806213,105.082954 182.534363,104.981598 183.605042,104.742722 
	C183.982925,104.878227 184.018250,105.151245 184.095612,105.835342 
	C183.318893,106.490089 182.500092,106.733757 181.353836,106.947403 
z"/>
<path fill="#060013" opacity="1.000000" stroke="none" 
	d="
M72.500839,106.864380 
	C72.286255,106.528664 72.522446,106.222061 72.954994,105.698471 
	C73.673264,106.035393 73.610451,106.506592 72.500839,106.864380 
z"/>
<path fill="#150E1E" opacity="1.000000" stroke="none" 
	d="
M96.872833,203.521698 
	C96.555206,203.710571 96.246780,203.464081 95.730522,203.001999 
	C96.097649,202.334167 96.551979,202.428635 96.872833,203.521698 
z"/>
<path fill="#C6A189" opacity="1.000000" stroke="none" 
	d="
M72.689209,180.948853 
	C75.776810,181.031113 78.654488,179.914841 81.636757,181.768646 
	C84.791161,184.600052 89.157944,185.543808 90.612923,190.196198 
	C86.672096,190.252792 82.929703,190.947311 79.001053,190.247467 
	C73.306755,189.233078 68.278709,191.351089 66.451332,195.160721 
	C65.561623,197.015533 65.364113,198.972183 67.109955,200.905151 
	C67.833023,201.116913 68.195358,201.273849 68.743576,201.722870 
	C72.773514,202.031326 76.578308,202.252350 80.380447,202.213562 
	C83.172134,202.185089 83.465584,203.390671 82.545464,205.603241 
	C80.414574,210.727325 76.416733,213.014236 71.066742,213.771759 
	C66.179939,214.463715 63.716282,211.549850 61.524914,208.104385 
	C55.366188,198.421158 60.257374,183.965759 72.689209,180.948853 
z"/>
<path fill="#1C111F" opacity="1.000000" stroke="none" 
	d="
M68.780777,201.679901 
	C68.578003,201.804871 68.186134,201.688049 67.612289,201.312195 
	C67.817444,201.181488 68.204575,201.309799 68.780777,201.679901 
z"/>
<path fill="#B18865" opacity="1.000000" stroke="none" 
	d="
M71.133133,43.339684 
	C69.717079,42.002277 69.867836,40.652668 70.487045,38.993103 
	C72.334183,38.528072 73.974892,38.182251 75.615906,38.180744 
	C109.773697,38.149395 143.931534,38.155231 178.089355,38.164051 
	C179.418579,38.164394 180.767365,38.145252 182.071686,38.355042 
	C183.496689,38.584244 184.571579,39.439495 184.546051,41.022778 
	C184.520309,42.618019 183.388763,43.341305 181.966064,43.591301 
	C181.153412,43.734097 180.308838,43.732769 179.478638,43.732868 
	C144.321518,43.737026 109.164398,43.735855 74.007286,43.720688 
	C73.180893,43.720333 72.354561,43.552887 71.133133,43.339684 
z"/>
<path fill="#BD916B" opacity="1.000000" stroke="none" 
	d="
M69.873505,163.358292 
	C70.224098,162.583099 70.606392,162.148422 71.185143,161.496811 
	C107.474831,161.233627 143.568054,161.181900 179.661301,161.155029 
	C181.772125,161.153442 184.512878,160.776367 184.316620,164.052444 
	C184.127136,167.215210 181.305527,166.632370 179.285370,166.639221 
	C163.650101,166.692261 148.014465,166.680038 132.379059,166.642639 
	C112.092499,166.594101 91.806053,166.503647 71.118263,166.322006 
	C70.446373,165.374786 70.175781,164.536789 69.873505,163.358292 
z"/>
<path fill="#B18865" opacity="1.000000" stroke="none" 
	d="
M71.864655,125.663818 
	C69.785393,124.485962 69.673103,122.944649 70.428345,120.932945 
	C72.104279,120.467926 73.578697,120.135941 75.053398,120.134689 
	C109.707169,120.105194 144.360977,120.107285 179.014786,120.121864 
	C180.966980,120.122688 183.162521,119.681274 184.340485,121.906944 
	C185.109375,123.359673 184.465424,124.454987 182.875275,125.443634 
	C156.989059,125.702721 131.364594,125.756775 105.740097,125.781929 
	C94.592064,125.792870 83.443970,125.744408 71.864655,125.663818 
z"/>
<path fill="#C0946C" opacity="1.000000" stroke="none" 
	d="
M70.439102,145.988647 
	C70.309677,144.536163 69.595894,142.900497 70.778870,141.160446 
	C108.351028,140.870193 145.709595,140.904510 183.521179,141.066101 
	C183.982071,142.406815 183.989914,143.620224 183.927155,145.191772 
	C182.371002,145.701874 180.885468,145.986267 179.399902,145.986435 
	C143.235947,145.990402 107.071999,145.964096 70.439102,145.988647 
z"/>
<path fill="#B18865" opacity="1.000000" stroke="none" 
	d="
M183.873260,79.589462 
	C184.423126,80.774902 184.591537,81.809456 184.760284,83.165787 
	C183.364380,84.529732 181.775192,84.849899 180.061371,84.846939 
	C144.117371,84.784760 108.173363,84.734947 71.797829,84.585541 
	C69.642212,83.099380 69.497284,81.533539 71.054276,79.533211 
	C102.534180,79.197151 133.801208,79.106750 165.068298,79.079445 
	C171.209366,79.074081 177.350647,79.312569 183.873260,79.589462 
z"/>
</svg>